<?xml version="1.0" encoding="utf-8" standalone="no"?>
<!DOCTYPE svg PUBLIC "-//W3C//DTD SVG 1.1//EN"
  "http://www.w3.org/Graphics/SVG/1.1/DTD/svg11.dtd">
<svg height="336.419531pt" version="1.1" viewBox="0 0 1110.25625 336.419531" width="1110.25625pt" xmlns="http://www.w3.org/2000/svg" xmlns:xlink="http://www.w3.org/1999/xlink">
 <metadata>
  <rdf:RDF xmlns:cc="http://creativecommons.org/ns#" xmlns:dc="http://purl.org/dc/elements/1.1/" xmlns:rdf="http://www.w3.org/1999/02/22-rdf-syntax-ns#">
   <cc:Work>
    <dc:type rdf:resource="http://purl.org/dc/dcmitype/StillImage"/>
    <dc:date>2021-10-08T03:37:17.674404</dc:date>
    <dc:format>image/svg+xml</dc:format>
    <dc:creator>
     <cc:Agent>
      <dc:title>Matplotlib v3.4.3, https://matplotlib.org/</dc:title>
     </cc:Agent>
    </dc:creator>
   </cc:Work>
  </rdf:RDF>
 </metadata>
 <defs>
  <style type="text/css">*{stroke-linecap:butt;stroke-linejoin:round;}</style>
 </defs>
 <g id="figure_1">
  <g id="patch_1">
   <path d="M 0 336.419531 
L 1110.25625 336.419531 
L 1110.25625 0 
L 0 0 
z
" style="fill:#ffffff;"/>
  </g>
  <g id="axes_1">
   <g id="patch_2">
    <path d="M 55.589063 297.928906 
L 1059.989063 297.928906 
L 1059.989063 26.128906 
L 55.589063 26.128906 
z
" style="fill:#ffffff;"/>
   </g>
   <g id="matplotlib.axis_1">
    <g id="xtick_1">
     <g id="text_1">
      <!-- 2019-11 -->
      <g style="fill:#262626;" transform="translate(59.444939 312.086719)scale(0.1 -0.1)">
       <defs>
        <path d="M 3222 541 
L 3222 0 
L 194 0 
Q 188 203 259 391 
Q 375 700 629 1000 
Q 884 1300 1366 1694 
Q 2113 2306 2375 2664 
Q 2638 3022 2638 3341 
Q 2638 3675 2398 3904 
Q 2159 4134 1775 4134 
Q 1369 4134 1125 3890 
Q 881 3647 878 3216 
L 300 3275 
Q 359 3922 746 4261 
Q 1134 4600 1788 4600 
Q 2447 4600 2831 4234 
Q 3216 3869 3216 3328 
Q 3216 3053 3103 2787 
Q 2991 2522 2730 2228 
Q 2469 1934 1863 1422 
Q 1356 997 1212 845 
Q 1069 694 975 541 
L 3222 541 
z
" id="ArialMT-32" transform="scale(0.015625)"/>
        <path d="M 266 2259 
Q 266 3072 433 3567 
Q 600 4063 929 4331 
Q 1259 4600 1759 4600 
Q 2128 4600 2406 4451 
Q 2684 4303 2865 4023 
Q 3047 3744 3150 3342 
Q 3253 2941 3253 2259 
Q 3253 1453 3087 958 
Q 2922 463 2592 192 
Q 2263 -78 1759 -78 
Q 1097 -78 719 397 
Q 266 969 266 2259 
z
M 844 2259 
Q 844 1131 1108 757 
Q 1372 384 1759 384 
Q 2147 384 2411 759 
Q 2675 1134 2675 2259 
Q 2675 3391 2411 3762 
Q 2147 4134 1753 4134 
Q 1366 4134 1134 3806 
Q 844 3388 844 2259 
z
" id="ArialMT-30" transform="scale(0.015625)"/>
        <path d="M 2384 0 
L 1822 0 
L 1822 3584 
Q 1619 3391 1289 3197 
Q 959 3003 697 2906 
L 697 3450 
Q 1169 3672 1522 3987 
Q 1875 4303 2022 4600 
L 2384 4600 
L 2384 0 
z
" id="ArialMT-31" transform="scale(0.015625)"/>
        <path d="M 350 1059 
L 891 1109 
Q 959 728 1153 556 
Q 1347 384 1650 384 
Q 1909 384 2104 503 
Q 2300 622 2425 820 
Q 2550 1019 2634 1356 
Q 2719 1694 2719 2044 
Q 2719 2081 2716 2156 
Q 2547 1888 2255 1720 
Q 1963 1553 1622 1553 
Q 1053 1553 659 1965 
Q 266 2378 266 3053 
Q 266 3750 677 4175 
Q 1088 4600 1706 4600 
Q 2153 4600 2523 4359 
Q 2894 4119 3086 3673 
Q 3278 3228 3278 2384 
Q 3278 1506 3087 986 
Q 2897 466 2520 194 
Q 2144 -78 1638 -78 
Q 1100 -78 759 220 
Q 419 519 350 1059 
z
M 2653 3081 
Q 2653 3566 2395 3850 
Q 2138 4134 1775 4134 
Q 1400 4134 1122 3828 
Q 844 3522 844 3034 
Q 844 2597 1108 2323 
Q 1372 2050 1759 2050 
Q 2150 2050 2401 2323 
Q 2653 2597 2653 3081 
z
" id="ArialMT-39" transform="scale(0.015625)"/>
        <path d="M 203 1375 
L 203 1941 
L 1931 1941 
L 1931 1375 
L 203 1375 
z
" id="ArialMT-2d" transform="scale(0.015625)"/>
       </defs>
       <use xlink:href="#ArialMT-32"/>
       <use x="55.615234" xlink:href="#ArialMT-30"/>
       <use x="111.230469" xlink:href="#ArialMT-31"/>
       <use x="166.845703" xlink:href="#ArialMT-39"/>
       <use x="222.460938" xlink:href="#ArialMT-2d"/>
       <use x="255.761719" xlink:href="#ArialMT-31"/>
       <use x="304.001953" xlink:href="#ArialMT-31"/>
      </g>
     </g>
    </g>
    <g id="xtick_2">
     <g id="text_2">
      <!-- 2019-12 -->
      <g style="fill:#262626;" transform="translate(102.745754 312.086719)scale(0.1 -0.1)">
       <use xlink:href="#ArialMT-32"/>
       <use x="55.615234" xlink:href="#ArialMT-30"/>
       <use x="111.230469" xlink:href="#ArialMT-31"/>
       <use x="166.845703" xlink:href="#ArialMT-39"/>
       <use x="222.460938" xlink:href="#ArialMT-2d"/>
       <use x="255.761719" xlink:href="#ArialMT-31"/>
       <use x="311.376953" xlink:href="#ArialMT-32"/>
      </g>
     </g>
    </g>
    <g id="xtick_3">
     <g id="text_3">
      <!-- 2020-1 -->
      <g style="fill:#262626;" transform="translate(149.195788 312.086719)scale(0.1 -0.1)">
       <use xlink:href="#ArialMT-32"/>
       <use x="55.615234" xlink:href="#ArialMT-30"/>
       <use x="111.230469" xlink:href="#ArialMT-32"/>
       <use x="166.845703" xlink:href="#ArialMT-30"/>
       <use x="222.460938" xlink:href="#ArialMT-2d"/>
       <use x="255.761719" xlink:href="#ArialMT-31"/>
      </g>
     </g>
    </g>
    <g id="xtick_4">
     <g id="text_4">
      <!-- 2020-2 -->
      <g style="fill:#262626;" transform="translate(192.865353 312.086719)scale(0.1 -0.1)">
       <use xlink:href="#ArialMT-32"/>
       <use x="55.615234" xlink:href="#ArialMT-30"/>
       <use x="111.230469" xlink:href="#ArialMT-32"/>
       <use x="166.845703" xlink:href="#ArialMT-30"/>
       <use x="222.460938" xlink:href="#ArialMT-2d"/>
       <use x="255.761719" xlink:href="#ArialMT-32"/>
      </g>
     </g>
    </g>
    <g id="xtick_5">
     <g id="text_5">
      <!-- 2020-3 -->
      <g style="fill:#262626;" transform="translate(236.534918 312.086719)scale(0.1 -0.1)">
       <defs>
        <path d="M 269 1209 
L 831 1284 
Q 928 806 1161 595 
Q 1394 384 1728 384 
Q 2125 384 2398 659 
Q 2672 934 2672 1341 
Q 2672 1728 2419 1979 
Q 2166 2231 1775 2231 
Q 1616 2231 1378 2169 
L 1441 2663 
Q 1497 2656 1531 2656 
Q 1891 2656 2178 2843 
Q 2466 3031 2466 3422 
Q 2466 3731 2256 3934 
Q 2047 4138 1716 4138 
Q 1388 4138 1169 3931 
Q 950 3725 888 3313 
L 325 3413 
Q 428 3978 793 4289 
Q 1159 4600 1703 4600 
Q 2078 4600 2393 4439 
Q 2709 4278 2876 4000 
Q 3044 3722 3044 3409 
Q 3044 3113 2884 2869 
Q 2725 2625 2413 2481 
Q 2819 2388 3044 2092 
Q 3269 1797 3269 1353 
Q 3269 753 2831 336 
Q 2394 -81 1725 -81 
Q 1122 -81 723 278 
Q 325 638 269 1209 
z
" id="ArialMT-33" transform="scale(0.015625)"/>
       </defs>
       <use xlink:href="#ArialMT-32"/>
       <use x="55.615234" xlink:href="#ArialMT-30"/>
       <use x="111.230469" xlink:href="#ArialMT-32"/>
       <use x="166.845703" xlink:href="#ArialMT-30"/>
       <use x="222.460938" xlink:href="#ArialMT-2d"/>
       <use x="255.761719" xlink:href="#ArialMT-33"/>
      </g>
     </g>
    </g>
    <g id="xtick_6">
     <g id="text_6">
      <!-- 2020-4 -->
      <g style="fill:#262626;" transform="translate(280.204484 312.086719)scale(0.1 -0.1)">
       <defs>
        <path d="M 2069 0 
L 2069 1097 
L 81 1097 
L 81 1613 
L 2172 4581 
L 2631 4581 
L 2631 1613 
L 3250 1613 
L 3250 1097 
L 2631 1097 
L 2631 0 
L 2069 0 
z
M 2069 1613 
L 2069 3678 
L 634 1613 
L 2069 1613 
z
" id="ArialMT-34" transform="scale(0.015625)"/>
       </defs>
       <use xlink:href="#ArialMT-32"/>
       <use x="55.615234" xlink:href="#ArialMT-30"/>
       <use x="111.230469" xlink:href="#ArialMT-32"/>
       <use x="166.845703" xlink:href="#ArialMT-30"/>
       <use x="222.460938" xlink:href="#ArialMT-2d"/>
       <use x="255.761719" xlink:href="#ArialMT-34"/>
      </g>
     </g>
    </g>
    <g id="xtick_7">
     <g id="text_7">
      <!-- 2020-5 -->
      <g style="fill:#262626;" transform="translate(323.874049 312.086719)scale(0.1 -0.1)">
       <defs>
        <path d="M 266 1200 
L 856 1250 
Q 922 819 1161 601 
Q 1400 384 1738 384 
Q 2144 384 2425 690 
Q 2706 997 2706 1503 
Q 2706 1984 2436 2262 
Q 2166 2541 1728 2541 
Q 1456 2541 1237 2417 
Q 1019 2294 894 2097 
L 366 2166 
L 809 4519 
L 3088 4519 
L 3088 3981 
L 1259 3981 
L 1013 2750 
Q 1425 3038 1878 3038 
Q 2478 3038 2890 2622 
Q 3303 2206 3303 1553 
Q 3303 931 2941 478 
Q 2500 -78 1738 -78 
Q 1113 -78 717 272 
Q 322 622 266 1200 
z
" id="ArialMT-35" transform="scale(0.015625)"/>
       </defs>
       <use xlink:href="#ArialMT-32"/>
       <use x="55.615234" xlink:href="#ArialMT-30"/>
       <use x="111.230469" xlink:href="#ArialMT-32"/>
       <use x="166.845703" xlink:href="#ArialMT-30"/>
       <use x="222.460938" xlink:href="#ArialMT-2d"/>
       <use x="255.761719" xlink:href="#ArialMT-35"/>
      </g>
     </g>
    </g>
    <g id="xtick_8">
     <g id="text_8">
      <!-- 2020-6 -->
      <g style="fill:#262626;" transform="translate(367.543614 312.086719)scale(0.1 -0.1)">
       <defs>
        <path d="M 3184 3459 
L 2625 3416 
Q 2550 3747 2413 3897 
Q 2184 4138 1850 4138 
Q 1581 4138 1378 3988 
Q 1113 3794 959 3422 
Q 806 3050 800 2363 
Q 1003 2672 1297 2822 
Q 1591 2972 1913 2972 
Q 2475 2972 2870 2558 
Q 3266 2144 3266 1488 
Q 3266 1056 3080 686 
Q 2894 316 2569 119 
Q 2244 -78 1831 -78 
Q 1128 -78 684 439 
Q 241 956 241 2144 
Q 241 3472 731 4075 
Q 1159 4600 1884 4600 
Q 2425 4600 2770 4297 
Q 3116 3994 3184 3459 
z
M 888 1484 
Q 888 1194 1011 928 
Q 1134 663 1356 523 
Q 1578 384 1822 384 
Q 2178 384 2434 671 
Q 2691 959 2691 1453 
Q 2691 1928 2437 2201 
Q 2184 2475 1800 2475 
Q 1419 2475 1153 2201 
Q 888 1928 888 1484 
z
" id="ArialMT-36" transform="scale(0.015625)"/>
       </defs>
       <use xlink:href="#ArialMT-32"/>
       <use x="55.615234" xlink:href="#ArialMT-30"/>
       <use x="111.230469" xlink:href="#ArialMT-32"/>
       <use x="166.845703" xlink:href="#ArialMT-30"/>
       <use x="222.460938" xlink:href="#ArialMT-2d"/>
       <use x="255.761719" xlink:href="#ArialMT-36"/>
      </g>
     </g>
    </g>
    <g id="xtick_9">
     <g id="text_9">
      <!-- 2020-7 -->
      <g style="fill:#262626;" transform="translate(411.213179 312.086719)scale(0.1 -0.1)">
       <defs>
        <path d="M 303 3981 
L 303 4522 
L 3269 4522 
L 3269 4084 
Q 2831 3619 2401 2847 
Q 1972 2075 1738 1259 
Q 1569 684 1522 0 
L 944 0 
Q 953 541 1156 1306 
Q 1359 2072 1739 2783 
Q 2119 3494 2547 3981 
L 303 3981 
z
" id="ArialMT-37" transform="scale(0.015625)"/>
       </defs>
       <use xlink:href="#ArialMT-32"/>
       <use x="55.615234" xlink:href="#ArialMT-30"/>
       <use x="111.230469" xlink:href="#ArialMT-32"/>
       <use x="166.845703" xlink:href="#ArialMT-30"/>
       <use x="222.460938" xlink:href="#ArialMT-2d"/>
       <use x="255.761719" xlink:href="#ArialMT-37"/>
      </g>
     </g>
    </g>
    <g id="xtick_10">
     <g id="text_10">
      <!-- 2020-8 -->
      <g style="fill:#262626;" transform="translate(454.882745 312.086719)scale(0.1 -0.1)">
       <defs>
        <path d="M 1131 2484 
Q 781 2613 612 2850 
Q 444 3088 444 3419 
Q 444 3919 803 4259 
Q 1163 4600 1759 4600 
Q 2359 4600 2725 4251 
Q 3091 3903 3091 3403 
Q 3091 3084 2923 2848 
Q 2756 2613 2416 2484 
Q 2838 2347 3058 2040 
Q 3278 1734 3278 1309 
Q 3278 722 2862 322 
Q 2447 -78 1769 -78 
Q 1091 -78 675 323 
Q 259 725 259 1325 
Q 259 1772 486 2073 
Q 713 2375 1131 2484 
z
M 1019 3438 
Q 1019 3113 1228 2906 
Q 1438 2700 1772 2700 
Q 2097 2700 2305 2904 
Q 2513 3109 2513 3406 
Q 2513 3716 2298 3927 
Q 2084 4138 1766 4138 
Q 1444 4138 1231 3931 
Q 1019 3725 1019 3438 
z
M 838 1322 
Q 838 1081 952 856 
Q 1066 631 1291 507 
Q 1516 384 1775 384 
Q 2178 384 2440 643 
Q 2703 903 2703 1303 
Q 2703 1709 2433 1975 
Q 2163 2241 1756 2241 
Q 1359 2241 1098 1978 
Q 838 1716 838 1322 
z
" id="ArialMT-38" transform="scale(0.015625)"/>
       </defs>
       <use xlink:href="#ArialMT-32"/>
       <use x="55.615234" xlink:href="#ArialMT-30"/>
       <use x="111.230469" xlink:href="#ArialMT-32"/>
       <use x="166.845703" xlink:href="#ArialMT-30"/>
       <use x="222.460938" xlink:href="#ArialMT-2d"/>
       <use x="255.761719" xlink:href="#ArialMT-38"/>
      </g>
     </g>
    </g>
    <g id="xtick_11">
     <g id="text_11">
      <!-- 2020-9 -->
      <g style="fill:#262626;" transform="translate(498.55231 312.086719)scale(0.1 -0.1)">
       <use xlink:href="#ArialMT-32"/>
       <use x="55.615234" xlink:href="#ArialMT-30"/>
       <use x="111.230469" xlink:href="#ArialMT-32"/>
       <use x="166.845703" xlink:href="#ArialMT-30"/>
       <use x="222.460938" xlink:href="#ArialMT-2d"/>
       <use x="255.761719" xlink:href="#ArialMT-39"/>
      </g>
     </g>
    </g>
    <g id="xtick_12">
     <g id="text_12">
      <!-- 2020-10 -->
      <g style="fill:#262626;" transform="translate(539.441406 312.086719)scale(0.1 -0.1)">
       <use xlink:href="#ArialMT-32"/>
       <use x="55.615234" xlink:href="#ArialMT-30"/>
       <use x="111.230469" xlink:href="#ArialMT-32"/>
       <use x="166.845703" xlink:href="#ArialMT-30"/>
       <use x="222.460938" xlink:href="#ArialMT-2d"/>
       <use x="255.761719" xlink:href="#ArialMT-31"/>
       <use x="311.376953" xlink:href="#ArialMT-30"/>
      </g>
     </g>
    </g>
    <g id="xtick_13">
     <g id="text_13">
      <!-- 2020-11 -->
      <g style="fill:#262626;" transform="translate(583.479721 312.086719)scale(0.1 -0.1)">
       <use xlink:href="#ArialMT-32"/>
       <use x="55.615234" xlink:href="#ArialMT-30"/>
       <use x="111.230469" xlink:href="#ArialMT-32"/>
       <use x="166.845703" xlink:href="#ArialMT-30"/>
       <use x="222.460938" xlink:href="#ArialMT-2d"/>
       <use x="255.761719" xlink:href="#ArialMT-31"/>
       <use x="304.001953" xlink:href="#ArialMT-31"/>
      </g>
     </g>
    </g>
    <g id="xtick_14">
     <g id="text_14">
      <!-- 2020-12 -->
      <g style="fill:#262626;" transform="translate(626.780537 312.086719)scale(0.1 -0.1)">
       <use xlink:href="#ArialMT-32"/>
       <use x="55.615234" xlink:href="#ArialMT-30"/>
       <use x="111.230469" xlink:href="#ArialMT-32"/>
       <use x="166.845703" xlink:href="#ArialMT-30"/>
       <use x="222.460938" xlink:href="#ArialMT-2d"/>
       <use x="255.761719" xlink:href="#ArialMT-31"/>
       <use x="311.376953" xlink:href="#ArialMT-32"/>
      </g>
     </g>
    </g>
    <g id="xtick_15">
     <g id="text_15">
      <!-- 2021-1 -->
      <g style="fill:#262626;" transform="translate(673.230571 312.086719)scale(0.1 -0.1)">
       <use xlink:href="#ArialMT-32"/>
       <use x="55.615234" xlink:href="#ArialMT-30"/>
       <use x="111.230469" xlink:href="#ArialMT-32"/>
       <use x="166.845703" xlink:href="#ArialMT-31"/>
       <use x="222.460938" xlink:href="#ArialMT-2d"/>
       <use x="255.761719" xlink:href="#ArialMT-31"/>
      </g>
     </g>
    </g>
    <g id="xtick_16">
     <g id="text_16">
      <!-- 2021-2 -->
      <g style="fill:#262626;" transform="translate(716.900136 312.086719)scale(0.1 -0.1)">
       <use xlink:href="#ArialMT-32"/>
       <use x="55.615234" xlink:href="#ArialMT-30"/>
       <use x="111.230469" xlink:href="#ArialMT-32"/>
       <use x="166.845703" xlink:href="#ArialMT-31"/>
       <use x="222.460938" xlink:href="#ArialMT-2d"/>
       <use x="255.761719" xlink:href="#ArialMT-32"/>
      </g>
     </g>
    </g>
    <g id="xtick_17">
     <g id="text_17">
      <!-- 2021-3 -->
      <g style="fill:#262626;" transform="translate(760.569701 312.086719)scale(0.1 -0.1)">
       <use xlink:href="#ArialMT-32"/>
       <use x="55.615234" xlink:href="#ArialMT-30"/>
       <use x="111.230469" xlink:href="#ArialMT-32"/>
       <use x="166.845703" xlink:href="#ArialMT-31"/>
       <use x="222.460938" xlink:href="#ArialMT-2d"/>
       <use x="255.761719" xlink:href="#ArialMT-33"/>
      </g>
     </g>
    </g>
    <g id="xtick_18">
     <g id="text_18">
      <!-- 2021-4 -->
      <g style="fill:#262626;" transform="translate(804.239266 312.086719)scale(0.1 -0.1)">
       <use xlink:href="#ArialMT-32"/>
       <use x="55.615234" xlink:href="#ArialMT-30"/>
       <use x="111.230469" xlink:href="#ArialMT-32"/>
       <use x="166.845703" xlink:href="#ArialMT-31"/>
       <use x="222.460938" xlink:href="#ArialMT-2d"/>
       <use x="255.761719" xlink:href="#ArialMT-34"/>
      </g>
     </g>
    </g>
    <g id="xtick_19">
     <g id="text_19">
      <!-- 2021-5 -->
      <g style="fill:#262626;" transform="translate(847.908832 312.086719)scale(0.1 -0.1)">
       <use xlink:href="#ArialMT-32"/>
       <use x="55.615234" xlink:href="#ArialMT-30"/>
       <use x="111.230469" xlink:href="#ArialMT-32"/>
       <use x="166.845703" xlink:href="#ArialMT-31"/>
       <use x="222.460938" xlink:href="#ArialMT-2d"/>
       <use x="255.761719" xlink:href="#ArialMT-35"/>
      </g>
     </g>
    </g>
    <g id="xtick_20">
     <g id="text_20">
      <!-- 2021-6 -->
      <g style="fill:#262626;" transform="translate(891.578397 312.086719)scale(0.1 -0.1)">
       <use xlink:href="#ArialMT-32"/>
       <use x="55.615234" xlink:href="#ArialMT-30"/>
       <use x="111.230469" xlink:href="#ArialMT-32"/>
       <use x="166.845703" xlink:href="#ArialMT-31"/>
       <use x="222.460938" xlink:href="#ArialMT-2d"/>
       <use x="255.761719" xlink:href="#ArialMT-36"/>
      </g>
     </g>
    </g>
    <g id="xtick_21">
     <g id="text_21">
      <!-- 2021-7 -->
      <g style="fill:#262626;" transform="translate(935.247962 312.086719)scale(0.1 -0.1)">
       <use xlink:href="#ArialMT-32"/>
       <use x="55.615234" xlink:href="#ArialMT-30"/>
       <use x="111.230469" xlink:href="#ArialMT-32"/>
       <use x="166.845703" xlink:href="#ArialMT-31"/>
       <use x="222.460938" xlink:href="#ArialMT-2d"/>
       <use x="255.761719" xlink:href="#ArialMT-37"/>
      </g>
     </g>
    </g>
    <g id="xtick_22">
     <g id="text_22">
      <!-- 2021-8 -->
      <g style="fill:#262626;" transform="translate(978.917527 312.086719)scale(0.1 -0.1)">
       <use xlink:href="#ArialMT-32"/>
       <use x="55.615234" xlink:href="#ArialMT-30"/>
       <use x="111.230469" xlink:href="#ArialMT-32"/>
       <use x="166.845703" xlink:href="#ArialMT-31"/>
       <use x="222.460938" xlink:href="#ArialMT-2d"/>
       <use x="255.761719" xlink:href="#ArialMT-38"/>
      </g>
     </g>
    </g>
    <g id="xtick_23">
     <g id="text_23">
      <!-- 2021-9 -->
      <g style="fill:#262626;" transform="translate(1022.587092 312.086719)scale(0.1 -0.1)">
       <use xlink:href="#ArialMT-32"/>
       <use x="55.615234" xlink:href="#ArialMT-30"/>
       <use x="111.230469" xlink:href="#ArialMT-32"/>
       <use x="166.845703" xlink:href="#ArialMT-31"/>
       <use x="222.460938" xlink:href="#ArialMT-2d"/>
       <use x="255.761719" xlink:href="#ArialMT-39"/>
      </g>
     </g>
    </g>
    <g id="text_24">
     <!-- Transaction Month -->
     <g style="fill:#262626;" transform="translate(516.571094 327.232031)scale(0.1 -0.1)">
      <defs>
       <path d="M 1659 0 
L 1659 4041 
L 150 4041 
L 150 4581 
L 3781 4581 
L 3781 4041 
L 2266 4041 
L 2266 0 
L 1659 0 
z
" id="ArialMT-54" transform="scale(0.015625)"/>
       <path d="M 416 0 
L 416 3319 
L 922 3319 
L 922 2816 
Q 1116 3169 1280 3281 
Q 1444 3394 1641 3394 
Q 1925 3394 2219 3213 
L 2025 2691 
Q 1819 2813 1613 2813 
Q 1428 2813 1281 2702 
Q 1134 2591 1072 2394 
Q 978 2094 978 1738 
L 978 0 
L 416 0 
z
" id="ArialMT-72" transform="scale(0.015625)"/>
       <path d="M 2588 409 
Q 2275 144 1986 34 
Q 1697 -75 1366 -75 
Q 819 -75 525 192 
Q 231 459 231 875 
Q 231 1119 342 1320 
Q 453 1522 633 1644 
Q 813 1766 1038 1828 
Q 1203 1872 1538 1913 
Q 2219 1994 2541 2106 
Q 2544 2222 2544 2253 
Q 2544 2597 2384 2738 
Q 2169 2928 1744 2928 
Q 1347 2928 1158 2789 
Q 969 2650 878 2297 
L 328 2372 
Q 403 2725 575 2942 
Q 747 3159 1072 3276 
Q 1397 3394 1825 3394 
Q 2250 3394 2515 3294 
Q 2781 3194 2906 3042 
Q 3031 2891 3081 2659 
Q 3109 2516 3109 2141 
L 3109 1391 
Q 3109 606 3145 398 
Q 3181 191 3288 0 
L 2700 0 
Q 2613 175 2588 409 
z
M 2541 1666 
Q 2234 1541 1622 1453 
Q 1275 1403 1131 1340 
Q 988 1278 909 1158 
Q 831 1038 831 891 
Q 831 666 1001 516 
Q 1172 366 1500 366 
Q 1825 366 2078 508 
Q 2331 650 2450 897 
Q 2541 1088 2541 1459 
L 2541 1666 
z
" id="ArialMT-61" transform="scale(0.015625)"/>
       <path d="M 422 0 
L 422 3319 
L 928 3319 
L 928 2847 
Q 1294 3394 1984 3394 
Q 2284 3394 2536 3286 
Q 2788 3178 2913 3003 
Q 3038 2828 3088 2588 
Q 3119 2431 3119 2041 
L 3119 0 
L 2556 0 
L 2556 2019 
Q 2556 2363 2490 2533 
Q 2425 2703 2258 2804 
Q 2091 2906 1866 2906 
Q 1506 2906 1245 2678 
Q 984 2450 984 1813 
L 984 0 
L 422 0 
z
" id="ArialMT-6e" transform="scale(0.015625)"/>
       <path d="M 197 991 
L 753 1078 
Q 800 744 1014 566 
Q 1228 388 1613 388 
Q 2000 388 2187 545 
Q 2375 703 2375 916 
Q 2375 1106 2209 1216 
Q 2094 1291 1634 1406 
Q 1016 1563 777 1677 
Q 538 1791 414 1992 
Q 291 2194 291 2438 
Q 291 2659 392 2848 
Q 494 3038 669 3163 
Q 800 3259 1026 3326 
Q 1253 3394 1513 3394 
Q 1903 3394 2198 3281 
Q 2494 3169 2634 2976 
Q 2775 2784 2828 2463 
L 2278 2388 
Q 2241 2644 2061 2787 
Q 1881 2931 1553 2931 
Q 1166 2931 1000 2803 
Q 834 2675 834 2503 
Q 834 2394 903 2306 
Q 972 2216 1119 2156 
Q 1203 2125 1616 2013 
Q 2213 1853 2448 1751 
Q 2684 1650 2818 1456 
Q 2953 1263 2953 975 
Q 2953 694 2789 445 
Q 2625 197 2315 61 
Q 2006 -75 1616 -75 
Q 969 -75 630 194 
Q 291 463 197 991 
z
" id="ArialMT-73" transform="scale(0.015625)"/>
       <path d="M 2588 1216 
L 3141 1144 
Q 3050 572 2676 248 
Q 2303 -75 1759 -75 
Q 1078 -75 664 370 
Q 250 816 250 1647 
Q 250 2184 428 2587 
Q 606 2991 970 3192 
Q 1334 3394 1763 3394 
Q 2303 3394 2647 3120 
Q 2991 2847 3088 2344 
L 2541 2259 
Q 2463 2594 2264 2762 
Q 2066 2931 1784 2931 
Q 1359 2931 1093 2626 
Q 828 2322 828 1663 
Q 828 994 1084 691 
Q 1341 388 1753 388 
Q 2084 388 2306 591 
Q 2528 794 2588 1216 
z
" id="ArialMT-63" transform="scale(0.015625)"/>
       <path d="M 1650 503 
L 1731 6 
Q 1494 -44 1306 -44 
Q 1000 -44 831 53 
Q 663 150 594 308 
Q 525 466 525 972 
L 525 2881 
L 113 2881 
L 113 3319 
L 525 3319 
L 525 4141 
L 1084 4478 
L 1084 3319 
L 1650 3319 
L 1650 2881 
L 1084 2881 
L 1084 941 
Q 1084 700 1114 631 
Q 1144 563 1211 522 
Q 1278 481 1403 481 
Q 1497 481 1650 503 
z
" id="ArialMT-74" transform="scale(0.015625)"/>
       <path d="M 425 3934 
L 425 4581 
L 988 4581 
L 988 3934 
L 425 3934 
z
M 425 0 
L 425 3319 
L 988 3319 
L 988 0 
L 425 0 
z
" id="ArialMT-69" transform="scale(0.015625)"/>
       <path d="M 213 1659 
Q 213 2581 725 3025 
Q 1153 3394 1769 3394 
Q 2453 3394 2887 2945 
Q 3322 2497 3322 1706 
Q 3322 1066 3130 698 
Q 2938 331 2570 128 
Q 2203 -75 1769 -75 
Q 1072 -75 642 372 
Q 213 819 213 1659 
z
M 791 1659 
Q 791 1022 1069 705 
Q 1347 388 1769 388 
Q 2188 388 2466 706 
Q 2744 1025 2744 1678 
Q 2744 2294 2464 2611 
Q 2184 2928 1769 2928 
Q 1347 2928 1069 2612 
Q 791 2297 791 1659 
z
" id="ArialMT-6f" transform="scale(0.015625)"/>
       <path id="ArialMT-20" transform="scale(0.015625)"/>
       <path d="M 475 0 
L 475 4581 
L 1388 4581 
L 2472 1338 
Q 2622 884 2691 659 
Q 2769 909 2934 1394 
L 4031 4581 
L 4847 4581 
L 4847 0 
L 4263 0 
L 4263 3834 
L 2931 0 
L 2384 0 
L 1059 3900 
L 1059 0 
L 475 0 
z
" id="ArialMT-4d" transform="scale(0.015625)"/>
       <path d="M 422 0 
L 422 4581 
L 984 4581 
L 984 2938 
Q 1378 3394 1978 3394 
Q 2347 3394 2619 3248 
Q 2891 3103 3008 2847 
Q 3125 2591 3125 2103 
L 3125 0 
L 2563 0 
L 2563 2103 
Q 2563 2525 2380 2717 
Q 2197 2909 1863 2909 
Q 1613 2909 1392 2779 
Q 1172 2650 1078 2428 
Q 984 2206 984 1816 
L 984 0 
L 422 0 
z
" id="ArialMT-68" transform="scale(0.015625)"/>
      </defs>
      <use xlink:href="#ArialMT-54"/>
      <use x="57.333984" xlink:href="#ArialMT-72"/>
      <use x="90.634766" xlink:href="#ArialMT-61"/>
      <use x="146.25" xlink:href="#ArialMT-6e"/>
      <use x="201.865234" xlink:href="#ArialMT-73"/>
      <use x="251.865234" xlink:href="#ArialMT-61"/>
      <use x="307.480469" xlink:href="#ArialMT-63"/>
      <use x="357.480469" xlink:href="#ArialMT-74"/>
      <use x="385.263672" xlink:href="#ArialMT-69"/>
      <use x="407.480469" xlink:href="#ArialMT-6f"/>
      <use x="463.095703" xlink:href="#ArialMT-6e"/>
      <use x="518.710938" xlink:href="#ArialMT-20"/>
      <use x="546.494141" xlink:href="#ArialMT-4d"/>
      <use x="629.794922" xlink:href="#ArialMT-6f"/>
      <use x="685.410156" xlink:href="#ArialMT-6e"/>
      <use x="741.025391" xlink:href="#ArialMT-74"/>
      <use x="768.808594" xlink:href="#ArialMT-68"/>
     </g>
    </g>
   </g>
   <g id="matplotlib.axis_2">
    <g id="ytick_1">
     <g id="line2d_1">
      <path clip-path="url(#p3eb6ed2238)" d="M 55.589063 297.928906 
L 1059.989063 297.928906 
" style="fill:none;stroke:#cccccc;stroke-linecap:round;stroke-width:0.8;"/>
     </g>
     <g id="line2d_2">
      <defs>
       <path d="M 0 0 
L -3.5 0 
" id="m5359724266" style="stroke:#262626;stroke-width:0.8;"/>
      </defs>
      <g>
       <use style="fill:#262626;stroke:#262626;stroke-width:0.8;" x="55.589063" xlink:href="#m5359724266" y="297.928906"/>
      </g>
     </g>
     <g id="text_25">
      <!-- 0 -->
      <g style="fill:#262626;" transform="translate(43.028125 301.507812)scale(0.1 -0.1)">
       <use xlink:href="#ArialMT-30"/>
      </g>
     </g>
    </g>
    <g id="ytick_2">
     <g id="line2d_3">
      <path clip-path="url(#p3eb6ed2238)" d="M 55.589063 250.812572 
L 1059.989063 250.812572 
" style="fill:none;stroke:#cccccc;stroke-linecap:round;stroke-width:0.8;"/>
     </g>
     <g id="line2d_4">
      <g>
       <use style="fill:#262626;stroke:#262626;stroke-width:0.8;" x="55.589063" xlink:href="#m5359724266" y="250.812572"/>
      </g>
     </g>
     <g id="text_26">
      <!-- 500 -->
      <g style="fill:#262626;" transform="translate(31.90625 254.391478)scale(0.1 -0.1)">
       <use xlink:href="#ArialMT-35"/>
       <use x="55.615234" xlink:href="#ArialMT-30"/>
       <use x="111.230469" xlink:href="#ArialMT-30"/>
      </g>
     </g>
    </g>
    <g id="ytick_3">
     <g id="line2d_5">
      <path clip-path="url(#p3eb6ed2238)" d="M 55.589063 203.696237 
L 1059.989063 203.696237 
" style="fill:none;stroke:#cccccc;stroke-linecap:round;stroke-width:0.8;"/>
     </g>
     <g id="line2d_6">
      <g>
       <use style="fill:#262626;stroke:#262626;stroke-width:0.8;" x="55.589063" xlink:href="#m5359724266" y="203.696237"/>
      </g>
     </g>
     <g id="text_27">
      <!-- 1000 -->
      <g style="fill:#262626;" transform="translate(26.345313 207.275143)scale(0.1 -0.1)">
       <use xlink:href="#ArialMT-31"/>
       <use x="55.615234" xlink:href="#ArialMT-30"/>
       <use x="111.230469" xlink:href="#ArialMT-30"/>
       <use x="166.845703" xlink:href="#ArialMT-30"/>
      </g>
     </g>
    </g>
    <g id="ytick_4">
     <g id="line2d_7">
      <path clip-path="url(#p3eb6ed2238)" d="M 55.589063 156.579902 
L 1059.989063 156.579902 
" style="fill:none;stroke:#cccccc;stroke-linecap:round;stroke-width:0.8;"/>
     </g>
     <g id="line2d_8">
      <g>
       <use style="fill:#262626;stroke:#262626;stroke-width:0.8;" x="55.589063" xlink:href="#m5359724266" y="156.579902"/>
      </g>
     </g>
     <g id="text_28">
      <!-- 1500 -->
      <g style="fill:#262626;" transform="translate(26.345313 160.158808)scale(0.1 -0.1)">
       <use xlink:href="#ArialMT-31"/>
       <use x="55.615234" xlink:href="#ArialMT-35"/>
       <use x="111.230469" xlink:href="#ArialMT-30"/>
       <use x="166.845703" xlink:href="#ArialMT-30"/>
      </g>
     </g>
    </g>
    <g id="ytick_5">
     <g id="line2d_9">
      <path clip-path="url(#p3eb6ed2238)" d="M 55.589063 109.463567 
L 1059.989063 109.463567 
" style="fill:none;stroke:#cccccc;stroke-linecap:round;stroke-width:0.8;"/>
     </g>
     <g id="line2d_10">
      <g>
       <use style="fill:#262626;stroke:#262626;stroke-width:0.8;" x="55.589063" xlink:href="#m5359724266" y="109.463567"/>
      </g>
     </g>
     <g id="text_29">
      <!-- 2000 -->
      <g style="fill:#262626;" transform="translate(26.345313 113.042474)scale(0.1 -0.1)">
       <use xlink:href="#ArialMT-32"/>
       <use x="55.615234" xlink:href="#ArialMT-30"/>
       <use x="111.230469" xlink:href="#ArialMT-30"/>
       <use x="166.845703" xlink:href="#ArialMT-30"/>
      </g>
     </g>
    </g>
    <g id="ytick_6">
     <g id="line2d_11">
      <path clip-path="url(#p3eb6ed2238)" d="M 55.589063 62.347233 
L 1059.989063 62.347233 
" style="fill:none;stroke:#cccccc;stroke-linecap:round;stroke-width:0.8;"/>
     </g>
     <g id="line2d_12">
      <g>
       <use style="fill:#262626;stroke:#262626;stroke-width:0.8;" x="55.589063" xlink:href="#m5359724266" y="62.347233"/>
      </g>
     </g>
     <g id="text_30">
      <!-- 2500 -->
      <g style="fill:#262626;" transform="translate(26.345313 65.926139)scale(0.1 -0.1)">
       <use xlink:href="#ArialMT-32"/>
       <use x="55.615234" xlink:href="#ArialMT-35"/>
       <use x="111.230469" xlink:href="#ArialMT-30"/>
       <use x="166.845703" xlink:href="#ArialMT-30"/>
      </g>
     </g>
    </g>
    <g id="text_31">
     <!-- Number of Transactions -->
     <g style="fill:#262626;" transform="translate(14.357813 215.104687)rotate(-90)scale(0.1 -0.1)">
      <defs>
       <path d="M 488 0 
L 488 4581 
L 1109 4581 
L 3516 984 
L 3516 4581 
L 4097 4581 
L 4097 0 
L 3475 0 
L 1069 3600 
L 1069 0 
L 488 0 
z
" id="ArialMT-4e" transform="scale(0.015625)"/>
       <path d="M 2597 0 
L 2597 488 
Q 2209 -75 1544 -75 
Q 1250 -75 995 37 
Q 741 150 617 320 
Q 494 491 444 738 
Q 409 903 409 1263 
L 409 3319 
L 972 3319 
L 972 1478 
Q 972 1038 1006 884 
Q 1059 663 1231 536 
Q 1403 409 1656 409 
Q 1909 409 2131 539 
Q 2353 669 2445 892 
Q 2538 1116 2538 1541 
L 2538 3319 
L 3100 3319 
L 3100 0 
L 2597 0 
z
" id="ArialMT-75" transform="scale(0.015625)"/>
       <path d="M 422 0 
L 422 3319 
L 925 3319 
L 925 2853 
Q 1081 3097 1340 3245 
Q 1600 3394 1931 3394 
Q 2300 3394 2536 3241 
Q 2772 3088 2869 2813 
Q 3263 3394 3894 3394 
Q 4388 3394 4653 3120 
Q 4919 2847 4919 2278 
L 4919 0 
L 4359 0 
L 4359 2091 
Q 4359 2428 4304 2576 
Q 4250 2725 4106 2815 
Q 3963 2906 3769 2906 
Q 3419 2906 3187 2673 
Q 2956 2441 2956 1928 
L 2956 0 
L 2394 0 
L 2394 2156 
Q 2394 2531 2256 2718 
Q 2119 2906 1806 2906 
Q 1569 2906 1367 2781 
Q 1166 2656 1075 2415 
Q 984 2175 984 1722 
L 984 0 
L 422 0 
z
" id="ArialMT-6d" transform="scale(0.015625)"/>
       <path d="M 941 0 
L 419 0 
L 419 4581 
L 981 4581 
L 981 2947 
Q 1338 3394 1891 3394 
Q 2197 3394 2470 3270 
Q 2744 3147 2920 2923 
Q 3097 2700 3197 2384 
Q 3297 2069 3297 1709 
Q 3297 856 2875 390 
Q 2453 -75 1863 -75 
Q 1275 -75 941 416 
L 941 0 
z
M 934 1684 
Q 934 1088 1097 822 
Q 1363 388 1816 388 
Q 2184 388 2453 708 
Q 2722 1028 2722 1663 
Q 2722 2313 2464 2622 
Q 2206 2931 1841 2931 
Q 1472 2931 1203 2611 
Q 934 2291 934 1684 
z
" id="ArialMT-62" transform="scale(0.015625)"/>
       <path d="M 2694 1069 
L 3275 997 
Q 3138 488 2766 206 
Q 2394 -75 1816 -75 
Q 1088 -75 661 373 
Q 234 822 234 1631 
Q 234 2469 665 2931 
Q 1097 3394 1784 3394 
Q 2450 3394 2872 2941 
Q 3294 2488 3294 1666 
Q 3294 1616 3291 1516 
L 816 1516 
Q 847 969 1125 678 
Q 1403 388 1819 388 
Q 2128 388 2347 550 
Q 2566 713 2694 1069 
z
M 847 1978 
L 2700 1978 
Q 2663 2397 2488 2606 
Q 2219 2931 1791 2931 
Q 1403 2931 1139 2672 
Q 875 2413 847 1978 
z
" id="ArialMT-65" transform="scale(0.015625)"/>
       <path d="M 556 0 
L 556 2881 
L 59 2881 
L 59 3319 
L 556 3319 
L 556 3672 
Q 556 4006 616 4169 
Q 697 4388 901 4523 
Q 1106 4659 1475 4659 
Q 1713 4659 2000 4603 
L 1916 4113 
Q 1741 4144 1584 4144 
Q 1328 4144 1222 4034 
Q 1116 3925 1116 3625 
L 1116 3319 
L 1763 3319 
L 1763 2881 
L 1116 2881 
L 1116 0 
L 556 0 
z
" id="ArialMT-66" transform="scale(0.015625)"/>
      </defs>
      <use xlink:href="#ArialMT-4e"/>
      <use x="72.216797" xlink:href="#ArialMT-75"/>
      <use x="127.832031" xlink:href="#ArialMT-6d"/>
      <use x="211.132812" xlink:href="#ArialMT-62"/>
      <use x="266.748047" xlink:href="#ArialMT-65"/>
      <use x="322.363281" xlink:href="#ArialMT-72"/>
      <use x="355.664062" xlink:href="#ArialMT-20"/>
      <use x="383.447266" xlink:href="#ArialMT-6f"/>
      <use x="439.0625" xlink:href="#ArialMT-66"/>
      <use x="466.845703" xlink:href="#ArialMT-20"/>
      <use x="492.878906" xlink:href="#ArialMT-54"/>
      <use x="550.212891" xlink:href="#ArialMT-72"/>
      <use x="583.513672" xlink:href="#ArialMT-61"/>
      <use x="639.128906" xlink:href="#ArialMT-6e"/>
      <use x="694.744141" xlink:href="#ArialMT-73"/>
      <use x="744.744141" xlink:href="#ArialMT-61"/>
      <use x="800.359375" xlink:href="#ArialMT-63"/>
      <use x="850.359375" xlink:href="#ArialMT-74"/>
      <use x="878.142578" xlink:href="#ArialMT-69"/>
      <use x="900.359375" xlink:href="#ArialMT-6f"/>
      <use x="955.974609" xlink:href="#ArialMT-6e"/>
      <use x="1011.589844" xlink:href="#ArialMT-73"/>
     </g>
    </g>
   </g>
   <g id="patch_3">
    <path clip-path="url(#p3eb6ed2238)" d="M 59.956019 297.928906 
L 94.891671 297.928906 
L 94.891671 117.944508 
L 59.956019 117.944508 
z
" style="fill:#475d75;stroke:#ffffff;stroke-linejoin:miter;stroke-width:0.5;"/>
   </g>
   <g id="patch_4">
    <path clip-path="url(#p3eb6ed2238)" d="M 103.625584 297.928906 
L 138.561236 297.928906 
L 138.561236 123.786933 
L 103.625584 123.786933 
z
" style="fill:#475d75;stroke:#ffffff;stroke-linejoin:miter;stroke-width:0.5;"/>
   </g>
   <g id="patch_5">
    <path clip-path="url(#p3eb6ed2238)" d="M 147.295149 297.928906 
L 182.230802 297.928906 
L 182.230802 117.850275 
L 147.295149 117.850275 
z
" style="fill:#475d75;stroke:#ffffff;stroke-linejoin:miter;stroke-width:0.5;"/>
   </g>
   <g id="patch_6">
    <path clip-path="url(#p3eb6ed2238)" d="M 190.964715 297.928906 
L 225.900367 297.928906 
L 225.900367 141.408442 
L 190.964715 141.408442 
z
" style="fill:#475d75;stroke:#ffffff;stroke-linejoin:miter;stroke-width:0.5;"/>
   </g>
   <g id="patch_7">
    <path clip-path="url(#p3eb6ed2238)" d="M 234.63428 297.928906 
L 269.569932 297.928906 
L 269.569932 115.400226 
L 234.63428 115.400226 
z
" style="fill:#475d75;stroke:#ffffff;stroke-linejoin:miter;stroke-width:0.5;"/>
   </g>
   <g id="patch_8">
    <path clip-path="url(#p3eb6ed2238)" d="M 278.303845 297.928906 
L 313.239497 297.928906 
L 313.239497 257.974254 
L 278.303845 257.974254 
z
" style="fill:#475d75;stroke:#ffffff;stroke-linejoin:miter;stroke-width:0.5;"/>
   </g>
   <g id="patch_9">
    <path clip-path="url(#p3eb6ed2238)" d="M 321.97341 297.928906 
L 356.909062 297.928906 
L 356.909062 263.722447 
L 321.97341 263.722447 
z
" style="fill:#475d75;stroke:#ffffff;stroke-linejoin:miter;stroke-width:0.5;"/>
   </g>
   <g id="patch_10">
    <path clip-path="url(#p3eb6ed2238)" d="M 365.642976 297.928906 
L 400.578628 297.928906 
L 400.578628 68.189658 
L 365.642976 68.189658 
z
" style="fill:#475d75;stroke:#ffffff;stroke-linejoin:miter;stroke-width:0.5;"/>
   </g>
   <g id="patch_11">
    <path clip-path="url(#p3eb6ed2238)" d="M 409.312541 297.928906 
L 444.248193 297.928906 
L 444.248193 66.49347 
L 409.312541 66.49347 
z
" style="fill:#475d75;stroke:#ffffff;stroke-linejoin:miter;stroke-width:0.5;"/>
   </g>
   <g id="patch_12">
    <path clip-path="url(#p3eb6ed2238)" d="M 452.982106 297.928906 
L 487.917758 297.928906 
L 487.917758 69.32045 
L 452.982106 69.32045 
z
" style="fill:#475d75;stroke:#ffffff;stroke-linejoin:miter;stroke-width:0.5;"/>
   </g>
   <g id="patch_13">
    <path clip-path="url(#p3eb6ed2238)" d="M 496.651671 297.928906 
L 531.587323 297.928906 
L 531.587323 64.043421 
L 496.651671 64.043421 
z
" style="fill:#475d75;stroke:#ffffff;stroke-linejoin:miter;stroke-width:0.5;"/>
   </g>
   <g id="patch_14">
    <path clip-path="url(#p3eb6ed2238)" d="M 540.321236 297.928906 
L 575.256889 297.928906 
L 575.256889 69.226218 
L 540.321236 69.226218 
z
" style="fill:#475d75;stroke:#ffffff;stroke-linejoin:miter;stroke-width:0.5;"/>
   </g>
   <g id="patch_15">
    <path clip-path="url(#p3eb6ed2238)" d="M 583.990802 297.928906 
L 618.926454 297.928906 
L 618.926454 79.120648 
L 583.990802 79.120648 
z
" style="fill:#475d75;stroke:#ffffff;stroke-linejoin:miter;stroke-width:0.5;"/>
   </g>
   <g id="patch_16">
    <path clip-path="url(#p3eb6ed2238)" d="M 627.660367 297.928906 
L 662.596019 297.928906 
L 662.596019 63.572257 
L 627.660367 63.572257 
z
" style="fill:#475d75;stroke:#ffffff;stroke-linejoin:miter;stroke-width:0.5;"/>
   </g>
   <g id="patch_17">
    <path clip-path="url(#p3eb6ed2238)" d="M 671.329932 297.928906 
L 706.265584 297.928906 
L 706.265584 63.195327 
L 671.329932 63.195327 
z
" style="fill:#475d75;stroke:#ffffff;stroke-linejoin:miter;stroke-width:0.5;"/>
   </g>
   <g id="patch_18">
    <path clip-path="url(#p3eb6ed2238)" d="M 714.999497 297.928906 
L 749.935149 297.928906 
L 749.935149 94.38634 
L 714.999497 94.38634 
z
" style="fill:#475d75;stroke:#ffffff;stroke-linejoin:miter;stroke-width:0.5;"/>
   </g>
   <g id="patch_19">
    <path clip-path="url(#p3eb6ed2238)" d="M 758.669062 297.928906 
L 793.604715 297.928906 
L 793.604715 67.718495 
L 758.669062 67.718495 
z
" style="fill:#475d75;stroke:#ffffff;stroke-linejoin:miter;stroke-width:0.5;"/>
   </g>
   <g id="patch_20">
    <path clip-path="url(#p3eb6ed2238)" d="M 802.338628 297.928906 
L 837.27428 297.928906 
L 837.27428 77.989856 
L 802.338628 77.989856 
z
" style="fill:#475d75;stroke:#ffffff;stroke-linejoin:miter;stroke-width:0.5;"/>
   </g>
   <g id="patch_21">
    <path clip-path="url(#p3eb6ed2238)" d="M 846.008193 297.928906 
L 880.943845 297.928906 
L 880.943845 113.515572 
L 846.008193 113.515572 
z
" style="fill:#475d75;stroke:#ffffff;stroke-linejoin:miter;stroke-width:0.5;"/>
   </g>
   <g id="patch_22">
    <path clip-path="url(#p3eb6ed2238)" d="M 889.677758 297.928906 
L 924.61341 297.928906 
L 924.61341 80.722603 
L 889.677758 80.722603 
z
" style="fill:#475d75;stroke:#ffffff;stroke-linejoin:miter;stroke-width:0.5;"/>
   </g>
   <g id="patch_23">
    <path clip-path="url(#p3eb6ed2238)" d="M 933.347323 297.928906 
L 968.282976 297.928906 
L 968.282976 47.08154 
L 933.347323 47.08154 
z
" style="fill:#475d75;stroke:#ffffff;stroke-linejoin:miter;stroke-width:0.5;"/>
   </g>
   <g id="patch_24">
    <path clip-path="url(#p3eb6ed2238)" d="M 977.016889 297.928906 
L 1011.952541 297.928906 
L 1011.952541 39.071763 
L 977.016889 39.071763 
z
" style="fill:#475d75;stroke:#ffffff;stroke-linejoin:miter;stroke-width:0.5;"/>
   </g>
   <g id="patch_25">
    <path clip-path="url(#p3eb6ed2238)" d="M 1020.686454 297.928906 
L 1055.622106 297.928906 
L 1055.622106 226.971706 
L 1020.686454 226.971706 
z
" style="fill:#475d75;stroke:#ffffff;stroke-linejoin:miter;stroke-width:0.5;"/>
   </g>
   <g id="patch_26">
    <path d="M 55.589063 297.928906 
L 55.589063 26.128906 
" style="fill:none;stroke:#cccccc;stroke-linecap:square;stroke-linejoin:miter;"/>
   </g>
   <g id="patch_27">
    <path d="M 55.589063 297.928906 
L 1059.989062 297.928906 
" style="fill:none;stroke:#cccccc;stroke-linecap:square;stroke-linejoin:miter;"/>
   </g>
   <g id="text_32">
    <!-- 1910 -->
    <g style="fill:#262626;" transform="translate(66.30197 113.232874)scale(0.1 -0.1)">
     <use xlink:href="#ArialMT-31"/>
     <use x="55.615234" xlink:href="#ArialMT-39"/>
     <use x="111.230469" xlink:href="#ArialMT-31"/>
     <use x="166.845703" xlink:href="#ArialMT-30"/>
    </g>
   </g>
   <g id="text_33">
    <!-- 1848 -->
    <g style="fill:#262626;" transform="translate(109.971535 119.0753)scale(0.1 -0.1)">
     <use xlink:href="#ArialMT-31"/>
     <use x="55.615234" xlink:href="#ArialMT-38"/>
     <use x="111.230469" xlink:href="#ArialMT-34"/>
     <use x="166.845703" xlink:href="#ArialMT-38"/>
    </g>
   </g>
   <g id="text_34">
    <!-- 1911 -->
    <g style="fill:#262626;" transform="translate(154.009851 113.138642)scale(0.1 -0.1)">
     <use xlink:href="#ArialMT-31"/>
     <use x="55.615234" xlink:href="#ArialMT-39"/>
     <use x="111.230469" xlink:href="#ArialMT-31"/>
     <use x="159.470703" xlink:href="#ArialMT-31"/>
    </g>
   </g>
   <g id="text_35">
    <!-- 1661 -->
    <g style="fill:#262626;" transform="translate(197.310666 136.696809)scale(0.1 -0.1)">
     <use xlink:href="#ArialMT-31"/>
     <use x="55.615234" xlink:href="#ArialMT-36"/>
     <use x="111.230469" xlink:href="#ArialMT-36"/>
     <use x="166.845703" xlink:href="#ArialMT-31"/>
    </g>
   </g>
   <g id="text_36">
    <!-- 1937 -->
    <g style="fill:#262626;" transform="translate(240.980231 110.688592)scale(0.1 -0.1)">
     <use xlink:href="#ArialMT-31"/>
     <use x="55.615234" xlink:href="#ArialMT-39"/>
     <use x="111.230469" xlink:href="#ArialMT-33"/>
     <use x="166.845703" xlink:href="#ArialMT-37"/>
    </g>
   </g>
   <g id="text_37">
    <!-- 424 -->
    <g style="fill:#262626;" transform="translate(287.430265 253.262621)scale(0.1 -0.1)">
     <use xlink:href="#ArialMT-34"/>
     <use x="55.615234" xlink:href="#ArialMT-32"/>
     <use x="111.230469" xlink:href="#ArialMT-34"/>
    </g>
   </g>
   <g id="text_38">
    <!-- 363 -->
    <g style="fill:#262626;" transform="translate(331.09983 259.010814)scale(0.1 -0.1)">
     <use xlink:href="#ArialMT-33"/>
     <use x="55.615234" xlink:href="#ArialMT-36"/>
     <use x="111.230469" xlink:href="#ArialMT-33"/>
    </g>
   </g>
   <g id="text_39">
    <!-- 2438 -->
    <g style="fill:#262626;" transform="translate(371.988927 63.478025)scale(0.1 -0.1)">
     <use xlink:href="#ArialMT-32"/>
     <use x="55.615234" xlink:href="#ArialMT-34"/>
     <use x="111.230469" xlink:href="#ArialMT-33"/>
     <use x="166.845703" xlink:href="#ArialMT-38"/>
    </g>
   </g>
   <g id="text_40">
    <!-- 2456 -->
    <g style="fill:#262626;" transform="translate(415.658492 61.781837)scale(0.1 -0.1)">
     <use xlink:href="#ArialMT-32"/>
     <use x="55.615234" xlink:href="#ArialMT-34"/>
     <use x="111.230469" xlink:href="#ArialMT-35"/>
     <use x="166.845703" xlink:href="#ArialMT-36"/>
    </g>
   </g>
   <g id="text_41">
    <!-- 2426 -->
    <g style="fill:#262626;" transform="translate(459.328057 64.608817)scale(0.1 -0.1)">
     <use xlink:href="#ArialMT-32"/>
     <use x="55.615234" xlink:href="#ArialMT-34"/>
     <use x="111.230469" xlink:href="#ArialMT-32"/>
     <use x="166.845703" xlink:href="#ArialMT-36"/>
    </g>
   </g>
   <g id="text_42">
    <!-- 2482 -->
    <g style="fill:#262626;" transform="translate(502.997622 59.331787)scale(0.1 -0.1)">
     <use xlink:href="#ArialMT-32"/>
     <use x="55.615234" xlink:href="#ArialMT-34"/>
     <use x="111.230469" xlink:href="#ArialMT-38"/>
     <use x="166.845703" xlink:href="#ArialMT-32"/>
    </g>
   </g>
   <g id="text_43">
    <!-- 2427 -->
    <g style="fill:#262626;" transform="translate(546.667187 64.514584)scale(0.1 -0.1)">
     <use xlink:href="#ArialMT-32"/>
     <use x="55.615234" xlink:href="#ArialMT-34"/>
     <use x="111.230469" xlink:href="#ArialMT-32"/>
     <use x="166.845703" xlink:href="#ArialMT-37"/>
    </g>
   </g>
   <g id="text_44">
    <!-- 2322 -->
    <g style="fill:#262626;" transform="translate(590.336753 74.409014)scale(0.1 -0.1)">
     <use xlink:href="#ArialMT-32"/>
     <use x="55.615234" xlink:href="#ArialMT-33"/>
     <use x="111.230469" xlink:href="#ArialMT-32"/>
     <use x="166.845703" xlink:href="#ArialMT-32"/>
    </g>
   </g>
   <g id="text_45">
    <!-- 2487 -->
    <g style="fill:#262626;" transform="translate(634.006318 58.860624)scale(0.1 -0.1)">
     <use xlink:href="#ArialMT-32"/>
     <use x="55.615234" xlink:href="#ArialMT-34"/>
     <use x="111.230469" xlink:href="#ArialMT-38"/>
     <use x="166.845703" xlink:href="#ArialMT-37"/>
    </g>
   </g>
   <g id="text_46">
    <!-- 2491 -->
    <g style="fill:#262626;" transform="translate(677.675883 58.483693)scale(0.1 -0.1)">
     <use xlink:href="#ArialMT-32"/>
     <use x="55.615234" xlink:href="#ArialMT-34"/>
     <use x="111.230469" xlink:href="#ArialMT-39"/>
     <use x="166.845703" xlink:href="#ArialMT-31"/>
    </g>
   </g>
   <g id="text_47">
    <!-- 2160 -->
    <g style="fill:#262626;" transform="translate(721.345448 89.674707)scale(0.1 -0.1)">
     <use xlink:href="#ArialMT-32"/>
     <use x="55.615234" xlink:href="#ArialMT-31"/>
     <use x="111.230469" xlink:href="#ArialMT-36"/>
     <use x="166.845703" xlink:href="#ArialMT-30"/>
    </g>
   </g>
   <g id="text_48">
    <!-- 2443 -->
    <g style="fill:#262626;" transform="translate(765.015014 63.006861)scale(0.1 -0.1)">
     <use xlink:href="#ArialMT-32"/>
     <use x="55.615234" xlink:href="#ArialMT-34"/>
     <use x="111.230469" xlink:href="#ArialMT-34"/>
     <use x="166.845703" xlink:href="#ArialMT-33"/>
    </g>
   </g>
   <g id="text_49">
    <!-- 2334 -->
    <g style="fill:#262626;" transform="translate(808.684579 73.278222)scale(0.1 -0.1)">
     <use xlink:href="#ArialMT-32"/>
     <use x="55.615234" xlink:href="#ArialMT-33"/>
     <use x="111.230469" xlink:href="#ArialMT-33"/>
     <use x="166.845703" xlink:href="#ArialMT-34"/>
    </g>
   </g>
   <g id="text_50">
    <!-- 1957 -->
    <g style="fill:#262626;" transform="translate(852.354144 108.803939)scale(0.1 -0.1)">
     <use xlink:href="#ArialMT-31"/>
     <use x="55.615234" xlink:href="#ArialMT-39"/>
     <use x="111.230469" xlink:href="#ArialMT-35"/>
     <use x="166.845703" xlink:href="#ArialMT-37"/>
    </g>
   </g>
   <g id="text_51">
    <!-- 2305 -->
    <g style="fill:#262626;" transform="translate(896.023709 76.01097)scale(0.1 -0.1)">
     <use xlink:href="#ArialMT-32"/>
     <use x="55.615234" xlink:href="#ArialMT-33"/>
     <use x="111.230469" xlink:href="#ArialMT-30"/>
     <use x="166.845703" xlink:href="#ArialMT-35"/>
    </g>
   </g>
   <g id="text_52">
    <!-- 2662 -->
    <g style="fill:#262626;" transform="translate(939.693274 42.369907)scale(0.1 -0.1)">
     <use xlink:href="#ArialMT-32"/>
     <use x="55.615234" xlink:href="#ArialMT-36"/>
     <use x="111.230469" xlink:href="#ArialMT-36"/>
     <use x="166.845703" xlink:href="#ArialMT-32"/>
    </g>
   </g>
   <g id="text_53">
    <!-- 2747 -->
    <g style="fill:#262626;" transform="translate(983.36284 34.36013)scale(0.1 -0.1)">
     <use xlink:href="#ArialMT-32"/>
     <use x="55.615234" xlink:href="#ArialMT-37"/>
     <use x="111.230469" xlink:href="#ArialMT-34"/>
     <use x="166.845703" xlink:href="#ArialMT-37"/>
    </g>
   </g>
   <g id="text_54">
    <!-- 753 -->
    <g style="fill:#262626;" transform="translate(1029.812874 222.260073)scale(0.1 -0.1)">
     <use xlink:href="#ArialMT-37"/>
     <use x="55.615234" xlink:href="#ArialMT-35"/>
     <use x="111.230469" xlink:href="#ArialMT-33"/>
    </g>
   </g>
   <g id="text_55">
    <!-- Trend of Total Number of HDB Sales Transaction and Mean Prices each Month from Oct 2019 to Sept 2021 (last 2 years) -->
    <g style="fill:#262626;" transform="translate(156.369141 18.128906)scale(0.15 -0.15)">
     <defs>
      <path d="M 2575 0 
L 2575 419 
Q 2259 -75 1647 -75 
Q 1250 -75 917 144 
Q 584 363 401 755 
Q 219 1147 219 1656 
Q 219 2153 384 2558 
Q 550 2963 881 3178 
Q 1213 3394 1622 3394 
Q 1922 3394 2156 3267 
Q 2391 3141 2538 2938 
L 2538 4581 
L 3097 4581 
L 3097 0 
L 2575 0 
z
M 797 1656 
Q 797 1019 1065 703 
Q 1334 388 1700 388 
Q 2069 388 2326 689 
Q 2584 991 2584 1609 
Q 2584 2291 2321 2609 
Q 2059 2928 1675 2928 
Q 1300 2928 1048 2622 
Q 797 2316 797 1656 
z
" id="ArialMT-64" transform="scale(0.015625)"/>
      <path d="M 409 0 
L 409 4581 
L 972 4581 
L 972 0 
L 409 0 
z
" id="ArialMT-6c" transform="scale(0.015625)"/>
      <path d="M 513 0 
L 513 4581 
L 1119 4581 
L 1119 2700 
L 3500 2700 
L 3500 4581 
L 4106 4581 
L 4106 0 
L 3500 0 
L 3500 2159 
L 1119 2159 
L 1119 0 
L 513 0 
z
" id="ArialMT-48" transform="scale(0.015625)"/>
      <path d="M 494 0 
L 494 4581 
L 2072 4581 
Q 2606 4581 2888 4516 
Q 3281 4425 3559 4188 
Q 3922 3881 4101 3404 
Q 4281 2928 4281 2316 
Q 4281 1794 4159 1391 
Q 4038 988 3847 723 
Q 3656 459 3429 307 
Q 3203 156 2883 78 
Q 2563 0 2147 0 
L 494 0 
z
M 1100 541 
L 2078 541 
Q 2531 541 2789 625 
Q 3047 709 3200 863 
Q 3416 1078 3536 1442 
Q 3656 1806 3656 2325 
Q 3656 3044 3420 3430 
Q 3184 3816 2847 3947 
Q 2603 4041 2063 4041 
L 1100 4041 
L 1100 541 
z
" id="ArialMT-44" transform="scale(0.015625)"/>
      <path d="M 469 0 
L 469 4581 
L 2188 4581 
Q 2713 4581 3030 4442 
Q 3347 4303 3526 4014 
Q 3706 3725 3706 3409 
Q 3706 3116 3547 2856 
Q 3388 2597 3066 2438 
Q 3481 2316 3704 2022 
Q 3928 1728 3928 1328 
Q 3928 1006 3792 729 
Q 3656 453 3456 303 
Q 3256 153 2954 76 
Q 2653 0 2216 0 
L 469 0 
z
M 1075 2656 
L 2066 2656 
Q 2469 2656 2644 2709 
Q 2875 2778 2992 2937 
Q 3109 3097 3109 3338 
Q 3109 3566 3000 3739 
Q 2891 3913 2687 3977 
Q 2484 4041 1991 4041 
L 1075 4041 
L 1075 2656 
z
M 1075 541 
L 2216 541 
Q 2509 541 2628 563 
Q 2838 600 2978 687 
Q 3119 775 3209 942 
Q 3300 1109 3300 1328 
Q 3300 1584 3169 1773 
Q 3038 1963 2805 2039 
Q 2572 2116 2134 2116 
L 1075 2116 
L 1075 541 
z
" id="ArialMT-42" transform="scale(0.015625)"/>
      <path d="M 288 1472 
L 859 1522 
Q 900 1178 1048 958 
Q 1197 738 1509 602 
Q 1822 466 2213 466 
Q 2559 466 2825 569 
Q 3091 672 3220 851 
Q 3350 1031 3350 1244 
Q 3350 1459 3225 1620 
Q 3100 1781 2813 1891 
Q 2628 1963 1997 2114 
Q 1366 2266 1113 2400 
Q 784 2572 623 2826 
Q 463 3081 463 3397 
Q 463 3744 659 4045 
Q 856 4347 1234 4503 
Q 1613 4659 2075 4659 
Q 2584 4659 2973 4495 
Q 3363 4331 3572 4012 
Q 3781 3694 3797 3291 
L 3216 3247 
Q 3169 3681 2898 3903 
Q 2628 4125 2100 4125 
Q 1550 4125 1298 3923 
Q 1047 3722 1047 3438 
Q 1047 3191 1225 3031 
Q 1400 2872 2139 2705 
Q 2878 2538 3153 2413 
Q 3553 2228 3743 1945 
Q 3934 1663 3934 1294 
Q 3934 928 3725 604 
Q 3516 281 3123 101 
Q 2731 -78 2241 -78 
Q 1619 -78 1198 103 
Q 778 284 539 648 
Q 300 1013 288 1472 
z
" id="ArialMT-53" transform="scale(0.015625)"/>
      <path d="M 494 0 
L 494 4581 
L 2222 4581 
Q 2678 4581 2919 4538 
Q 3256 4481 3484 4323 
Q 3713 4166 3852 3881 
Q 3991 3597 3991 3256 
Q 3991 2672 3619 2267 
Q 3247 1863 2275 1863 
L 1100 1863 
L 1100 0 
L 494 0 
z
M 1100 2403 
L 2284 2403 
Q 2872 2403 3119 2622 
Q 3366 2841 3366 3238 
Q 3366 3525 3220 3729 
Q 3075 3934 2838 4000 
Q 2684 4041 2272 4041 
L 1100 4041 
L 1100 2403 
z
" id="ArialMT-50" transform="scale(0.015625)"/>
      <path d="M 309 2231 
Q 309 3372 921 4017 
Q 1534 4663 2503 4663 
Q 3138 4663 3647 4359 
Q 4156 4056 4423 3514 
Q 4691 2972 4691 2284 
Q 4691 1588 4409 1038 
Q 4128 488 3612 205 
Q 3097 -78 2500 -78 
Q 1853 -78 1343 234 
Q 834 547 571 1087 
Q 309 1628 309 2231 
z
M 934 2222 
Q 934 1394 1379 917 
Q 1825 441 2497 441 
Q 3181 441 3623 922 
Q 4066 1403 4066 2288 
Q 4066 2847 3877 3264 
Q 3688 3681 3323 3911 
Q 2959 4141 2506 4141 
Q 1863 4141 1398 3698 
Q 934 3256 934 2222 
z
" id="ArialMT-4f" transform="scale(0.015625)"/>
      <path d="M 422 -1272 
L 422 3319 
L 934 3319 
L 934 2888 
Q 1116 3141 1344 3267 
Q 1572 3394 1897 3394 
Q 2322 3394 2647 3175 
Q 2972 2956 3137 2557 
Q 3303 2159 3303 1684 
Q 3303 1175 3120 767 
Q 2938 359 2589 142 
Q 2241 -75 1856 -75 
Q 1575 -75 1351 44 
Q 1128 163 984 344 
L 984 -1272 
L 422 -1272 
z
M 931 1641 
Q 931 1000 1190 694 
Q 1450 388 1819 388 
Q 2194 388 2461 705 
Q 2728 1022 2728 1688 
Q 2728 2322 2467 2637 
Q 2206 2953 1844 2953 
Q 1484 2953 1207 2617 
Q 931 2281 931 1641 
z
" id="ArialMT-70" transform="scale(0.015625)"/>
      <path d="M 1497 -1347 
Q 1031 -759 709 28 
Q 388 816 388 1659 
Q 388 2403 628 3084 
Q 909 3875 1497 4659 
L 1900 4659 
Q 1522 4009 1400 3731 
Q 1209 3300 1100 2831 
Q 966 2247 966 1656 
Q 966 153 1900 -1347 
L 1497 -1347 
z
" id="ArialMT-28" transform="scale(0.015625)"/>
      <path d="M 397 -1278 
L 334 -750 
Q 519 -800 656 -800 
Q 844 -800 956 -737 
Q 1069 -675 1141 -563 
Q 1194 -478 1313 -144 
Q 1328 -97 1363 -6 
L 103 3319 
L 709 3319 
L 1400 1397 
Q 1534 1031 1641 628 
Q 1738 1016 1872 1384 
L 2581 3319 
L 3144 3319 
L 1881 -56 
Q 1678 -603 1566 -809 
Q 1416 -1088 1222 -1217 
Q 1028 -1347 759 -1347 
Q 597 -1347 397 -1278 
z
" id="ArialMT-79" transform="scale(0.015625)"/>
      <path d="M 791 -1347 
L 388 -1347 
Q 1322 153 1322 1656 
Q 1322 2244 1188 2822 
Q 1081 3291 891 3722 
Q 769 4003 388 4659 
L 791 4659 
Q 1378 3875 1659 3084 
Q 1900 2403 1900 1659 
Q 1900 816 1576 28 
Q 1253 -759 791 -1347 
z
" id="ArialMT-29" transform="scale(0.015625)"/>
     </defs>
     <use xlink:href="#ArialMT-54"/>
     <use x="57.333984" xlink:href="#ArialMT-72"/>
     <use x="90.634766" xlink:href="#ArialMT-65"/>
     <use x="146.25" xlink:href="#ArialMT-6e"/>
     <use x="201.865234" xlink:href="#ArialMT-64"/>
     <use x="257.480469" xlink:href="#ArialMT-20"/>
     <use x="285.263672" xlink:href="#ArialMT-6f"/>
     <use x="340.878906" xlink:href="#ArialMT-66"/>
     <use x="368.662109" xlink:href="#ArialMT-20"/>
     <use x="394.695312" xlink:href="#ArialMT-54"/>
     <use x="444.654297" xlink:href="#ArialMT-6f"/>
     <use x="500.269531" xlink:href="#ArialMT-74"/>
     <use x="528.052734" xlink:href="#ArialMT-61"/>
     <use x="583.667969" xlink:href="#ArialMT-6c"/>
     <use x="605.884766" xlink:href="#ArialMT-20"/>
     <use x="633.667969" xlink:href="#ArialMT-4e"/>
     <use x="705.884766" xlink:href="#ArialMT-75"/>
     <use x="761.5" xlink:href="#ArialMT-6d"/>
     <use x="844.800781" xlink:href="#ArialMT-62"/>
     <use x="900.416016" xlink:href="#ArialMT-65"/>
     <use x="956.03125" xlink:href="#ArialMT-72"/>
     <use x="989.332031" xlink:href="#ArialMT-20"/>
     <use x="1017.115234" xlink:href="#ArialMT-6f"/>
     <use x="1072.730469" xlink:href="#ArialMT-66"/>
     <use x="1100.513672" xlink:href="#ArialMT-20"/>
     <use x="1128.296875" xlink:href="#ArialMT-48"/>
     <use x="1200.513672" xlink:href="#ArialMT-44"/>
     <use x="1272.730469" xlink:href="#ArialMT-42"/>
     <use x="1339.429688" xlink:href="#ArialMT-20"/>
     <use x="1367.212891" xlink:href="#ArialMT-53"/>
     <use x="1433.912109" xlink:href="#ArialMT-61"/>
     <use x="1489.527344" xlink:href="#ArialMT-6c"/>
     <use x="1511.744141" xlink:href="#ArialMT-65"/>
     <use x="1567.359375" xlink:href="#ArialMT-73"/>
     <use x="1617.359375" xlink:href="#ArialMT-20"/>
     <use x="1643.392578" xlink:href="#ArialMT-54"/>
     <use x="1700.726562" xlink:href="#ArialMT-72"/>
     <use x="1734.027344" xlink:href="#ArialMT-61"/>
     <use x="1789.642578" xlink:href="#ArialMT-6e"/>
     <use x="1845.257812" xlink:href="#ArialMT-73"/>
     <use x="1895.257812" xlink:href="#ArialMT-61"/>
     <use x="1950.873047" xlink:href="#ArialMT-63"/>
     <use x="2000.873047" xlink:href="#ArialMT-74"/>
     <use x="2028.65625" xlink:href="#ArialMT-69"/>
     <use x="2050.873047" xlink:href="#ArialMT-6f"/>
     <use x="2106.488281" xlink:href="#ArialMT-6e"/>
     <use x="2162.103516" xlink:href="#ArialMT-20"/>
     <use x="2189.886719" xlink:href="#ArialMT-61"/>
     <use x="2245.501953" xlink:href="#ArialMT-6e"/>
     <use x="2301.117188" xlink:href="#ArialMT-64"/>
     <use x="2356.732422" xlink:href="#ArialMT-20"/>
     <use x="2384.515625" xlink:href="#ArialMT-4d"/>
     <use x="2467.816406" xlink:href="#ArialMT-65"/>
     <use x="2523.431641" xlink:href="#ArialMT-61"/>
     <use x="2579.046875" xlink:href="#ArialMT-6e"/>
     <use x="2634.662109" xlink:href="#ArialMT-20"/>
     <use x="2662.445312" xlink:href="#ArialMT-50"/>
     <use x="2729.144531" xlink:href="#ArialMT-72"/>
     <use x="2762.445312" xlink:href="#ArialMT-69"/>
     <use x="2784.662109" xlink:href="#ArialMT-63"/>
     <use x="2834.662109" xlink:href="#ArialMT-65"/>
     <use x="2890.277344" xlink:href="#ArialMT-73"/>
     <use x="2940.277344" xlink:href="#ArialMT-20"/>
     <use x="2968.060547" xlink:href="#ArialMT-65"/>
     <use x="3023.675781" xlink:href="#ArialMT-61"/>
     <use x="3079.291016" xlink:href="#ArialMT-63"/>
     <use x="3129.291016" xlink:href="#ArialMT-68"/>
     <use x="3184.90625" xlink:href="#ArialMT-20"/>
     <use x="3212.689453" xlink:href="#ArialMT-4d"/>
     <use x="3295.990234" xlink:href="#ArialMT-6f"/>
     <use x="3351.605469" xlink:href="#ArialMT-6e"/>
     <use x="3407.220703" xlink:href="#ArialMT-74"/>
     <use x="3435.003906" xlink:href="#ArialMT-68"/>
     <use x="3490.619141" xlink:href="#ArialMT-20"/>
     <use x="3518.402344" xlink:href="#ArialMT-66"/>
     <use x="3546.185547" xlink:href="#ArialMT-72"/>
     <use x="3579.486328" xlink:href="#ArialMT-6f"/>
     <use x="3635.101562" xlink:href="#ArialMT-6d"/>
     <use x="3718.402344" xlink:href="#ArialMT-20"/>
     <use x="3746.185547" xlink:href="#ArialMT-4f"/>
     <use x="3823.96875" xlink:href="#ArialMT-63"/>
     <use x="3873.96875" xlink:href="#ArialMT-74"/>
     <use x="3901.751953" xlink:href="#ArialMT-20"/>
     <use x="3929.535156" xlink:href="#ArialMT-32"/>
     <use x="3985.150391" xlink:href="#ArialMT-30"/>
     <use x="4040.765625" xlink:href="#ArialMT-31"/>
     <use x="4096.380859" xlink:href="#ArialMT-39"/>
     <use x="4151.996094" xlink:href="#ArialMT-20"/>
     <use x="4179.779297" xlink:href="#ArialMT-74"/>
     <use x="4207.5625" xlink:href="#ArialMT-6f"/>
     <use x="4263.177734" xlink:href="#ArialMT-20"/>
     <use x="4290.960938" xlink:href="#ArialMT-53"/>
     <use x="4357.660156" xlink:href="#ArialMT-65"/>
     <use x="4413.275391" xlink:href="#ArialMT-70"/>
     <use x="4468.890625" xlink:href="#ArialMT-74"/>
     <use x="4496.673828" xlink:href="#ArialMT-20"/>
     <use x="4524.457031" xlink:href="#ArialMT-32"/>
     <use x="4580.072266" xlink:href="#ArialMT-30"/>
     <use x="4635.6875" xlink:href="#ArialMT-32"/>
     <use x="4691.302734" xlink:href="#ArialMT-31"/>
     <use x="4746.917969" xlink:href="#ArialMT-20"/>
     <use x="4774.701172" xlink:href="#ArialMT-28"/>
     <use x="4808.001953" xlink:href="#ArialMT-6c"/>
     <use x="4830.21875" xlink:href="#ArialMT-61"/>
     <use x="4885.833984" xlink:href="#ArialMT-73"/>
     <use x="4935.833984" xlink:href="#ArialMT-74"/>
     <use x="4963.617188" xlink:href="#ArialMT-20"/>
     <use x="4991.400391" xlink:href="#ArialMT-32"/>
     <use x="5047.015625" xlink:href="#ArialMT-20"/>
     <use x="5074.798828" xlink:href="#ArialMT-79"/>
     <use x="5124.798828" xlink:href="#ArialMT-65"/>
     <use x="5180.414062" xlink:href="#ArialMT-61"/>
     <use x="5236.029297" xlink:href="#ArialMT-72"/>
     <use x="5269.330078" xlink:href="#ArialMT-73"/>
     <use x="5319.330078" xlink:href="#ArialMT-29"/>
    </g>
   </g>
  </g>
  <g id="axes_2">
   <g id="matplotlib.axis_3">
    <g id="ytick_7">
     <g id="line2d_13">
      <defs>
       <path d="M 0 0 
L 3.5 0 
" id="m9bdd3a0721" style="stroke:#262626;stroke-width:0.8;"/>
      </defs>
      <g>
       <use style="fill:#262626;stroke:#262626;stroke-width:0.8;" x="1059.989063" xlink:href="#m9bdd3a0721" y="293.315283"/>
      </g>
     </g>
     <g id="text_56">
      <!-- 420 -->
      <g style="fill:#262626;" transform="translate(1066.989063 296.894189)scale(0.1 -0.1)">
       <use xlink:href="#ArialMT-34"/>
       <use x="55.615234" xlink:href="#ArialMT-32"/>
       <use x="111.230469" xlink:href="#ArialMT-30"/>
      </g>
     </g>
    </g>
    <g id="ytick_8">
     <g id="line2d_14">
      <g>
       <use style="fill:#262626;stroke:#262626;stroke-width:0.8;" x="1059.989063" xlink:href="#m9bdd3a0721" y="247.815774"/>
      </g>
     </g>
     <g id="text_57">
      <!-- 440 -->
      <g style="fill:#262626;" transform="translate(1066.989063 251.39468)scale(0.1 -0.1)">
       <use xlink:href="#ArialMT-34"/>
       <use x="55.615234" xlink:href="#ArialMT-34"/>
       <use x="111.230469" xlink:href="#ArialMT-30"/>
      </g>
     </g>
    </g>
    <g id="ytick_9">
     <g id="line2d_15">
      <g>
       <use style="fill:#262626;stroke:#262626;stroke-width:0.8;" x="1059.989063" xlink:href="#m9bdd3a0721" y="202.316264"/>
      </g>
     </g>
     <g id="text_58">
      <!-- 460 -->
      <g style="fill:#262626;" transform="translate(1066.989063 205.89517)scale(0.1 -0.1)">
       <use xlink:href="#ArialMT-34"/>
       <use x="55.615234" xlink:href="#ArialMT-36"/>
       <use x="111.230469" xlink:href="#ArialMT-30"/>
      </g>
     </g>
    </g>
    <g id="ytick_10">
     <g id="line2d_16">
      <g>
       <use style="fill:#262626;stroke:#262626;stroke-width:0.8;" x="1059.989063" xlink:href="#m9bdd3a0721" y="156.816755"/>
      </g>
     </g>
     <g id="text_59">
      <!-- 480 -->
      <g style="fill:#262626;" transform="translate(1066.989063 160.395661)scale(0.1 -0.1)">
       <use xlink:href="#ArialMT-34"/>
       <use x="55.615234" xlink:href="#ArialMT-38"/>
       <use x="111.230469" xlink:href="#ArialMT-30"/>
      </g>
     </g>
    </g>
    <g id="ytick_11">
     <g id="line2d_17">
      <g>
       <use style="fill:#262626;stroke:#262626;stroke-width:0.8;" x="1059.989063" xlink:href="#m9bdd3a0721" y="111.317245"/>
      </g>
     </g>
     <g id="text_60">
      <!-- 500 -->
      <g style="fill:#262626;" transform="translate(1066.989063 114.896152)scale(0.1 -0.1)">
       <use xlink:href="#ArialMT-35"/>
       <use x="55.615234" xlink:href="#ArialMT-30"/>
       <use x="111.230469" xlink:href="#ArialMT-30"/>
      </g>
     </g>
    </g>
    <g id="ytick_12">
     <g id="line2d_18">
      <g>
       <use style="fill:#262626;stroke:#262626;stroke-width:0.8;" x="1059.989063" xlink:href="#m9bdd3a0721" y="65.817736"/>
      </g>
     </g>
     <g id="text_61">
      <!-- 520 -->
      <g style="fill:#262626;" transform="translate(1066.989063 69.396642)scale(0.1 -0.1)">
       <use xlink:href="#ArialMT-35"/>
       <use x="55.615234" xlink:href="#ArialMT-32"/>
       <use x="111.230469" xlink:href="#ArialMT-30"/>
      </g>
     </g>
    </g>
    <g id="text_62">
     <!-- Mean Resale Price in SGD (thousands) -->
     <g style="fill:#262626;" transform="translate(1100.951562 249.563281)rotate(-90)scale(0.1 -0.1)">
      <defs>
       <path d="M 503 0 
L 503 4581 
L 2534 4581 
Q 3147 4581 3465 4457 
Q 3784 4334 3975 4021 
Q 4166 3709 4166 3331 
Q 4166 2844 3850 2509 
Q 3534 2175 2875 2084 
Q 3116 1969 3241 1856 
Q 3506 1613 3744 1247 
L 4541 0 
L 3778 0 
L 3172 953 
Q 2906 1366 2734 1584 
Q 2563 1803 2427 1890 
Q 2291 1978 2150 2013 
Q 2047 2034 1813 2034 
L 1109 2034 
L 1109 0 
L 503 0 
z
M 1109 2559 
L 2413 2559 
Q 2828 2559 3062 2645 
Q 3297 2731 3419 2920 
Q 3541 3109 3541 3331 
Q 3541 3656 3305 3865 
Q 3069 4075 2559 4075 
L 1109 4075 
L 1109 2559 
z
" id="ArialMT-52" transform="scale(0.015625)"/>
       <path d="M 2638 1797 
L 2638 2334 
L 4578 2338 
L 4578 638 
Q 4131 281 3656 101 
Q 3181 -78 2681 -78 
Q 2006 -78 1454 211 
Q 903 500 622 1047 
Q 341 1594 341 2269 
Q 341 2938 620 3517 
Q 900 4097 1425 4378 
Q 1950 4659 2634 4659 
Q 3131 4659 3532 4498 
Q 3934 4338 4162 4050 
Q 4391 3763 4509 3300 
L 3963 3150 
Q 3859 3500 3706 3700 
Q 3553 3900 3268 4020 
Q 2984 4141 2638 4141 
Q 2222 4141 1919 4014 
Q 1616 3888 1430 3681 
Q 1244 3475 1141 3228 
Q 966 2803 966 2306 
Q 966 1694 1177 1281 
Q 1388 869 1791 669 
Q 2194 469 2647 469 
Q 3041 469 3416 620 
Q 3791 772 3984 944 
L 3984 1797 
L 2638 1797 
z
" id="ArialMT-47" transform="scale(0.015625)"/>
      </defs>
      <use xlink:href="#ArialMT-4d"/>
      <use x="83.300781" xlink:href="#ArialMT-65"/>
      <use x="138.916016" xlink:href="#ArialMT-61"/>
      <use x="194.53125" xlink:href="#ArialMT-6e"/>
      <use x="250.146484" xlink:href="#ArialMT-20"/>
      <use x="277.929688" xlink:href="#ArialMT-52"/>
      <use x="350.146484" xlink:href="#ArialMT-65"/>
      <use x="405.761719" xlink:href="#ArialMT-73"/>
      <use x="455.761719" xlink:href="#ArialMT-61"/>
      <use x="511.376953" xlink:href="#ArialMT-6c"/>
      <use x="533.59375" xlink:href="#ArialMT-65"/>
      <use x="589.208984" xlink:href="#ArialMT-20"/>
      <use x="616.992188" xlink:href="#ArialMT-50"/>
      <use x="683.691406" xlink:href="#ArialMT-72"/>
      <use x="716.992188" xlink:href="#ArialMT-69"/>
      <use x="739.208984" xlink:href="#ArialMT-63"/>
      <use x="789.208984" xlink:href="#ArialMT-65"/>
      <use x="844.824219" xlink:href="#ArialMT-20"/>
      <use x="872.607422" xlink:href="#ArialMT-69"/>
      <use x="894.824219" xlink:href="#ArialMT-6e"/>
      <use x="950.439453" xlink:href="#ArialMT-20"/>
      <use x="978.222656" xlink:href="#ArialMT-53"/>
      <use x="1044.921875" xlink:href="#ArialMT-47"/>
      <use x="1122.705078" xlink:href="#ArialMT-44"/>
      <use x="1194.921875" xlink:href="#ArialMT-20"/>
      <use x="1222.705078" xlink:href="#ArialMT-28"/>
      <use x="1256.005859" xlink:href="#ArialMT-74"/>
      <use x="1283.789062" xlink:href="#ArialMT-68"/>
      <use x="1339.404297" xlink:href="#ArialMT-6f"/>
      <use x="1395.019531" xlink:href="#ArialMT-75"/>
      <use x="1450.634766" xlink:href="#ArialMT-73"/>
      <use x="1500.634766" xlink:href="#ArialMT-61"/>
      <use x="1556.25" xlink:href="#ArialMT-6e"/>
      <use x="1611.865234" xlink:href="#ArialMT-64"/>
      <use x="1667.480469" xlink:href="#ArialMT-73"/>
      <use x="1717.480469" xlink:href="#ArialMT-29"/>
     </g>
    </g>
   </g>
   <g id="PathCollection_1">
    <defs>
     <path d="M 0 3.383948 
C 0.897434 3.383948 1.758231 3.027394 2.392813 2.392813 
C 3.027394 1.758231 3.383948 0.897434 3.383948 -0 
C 3.383948 -0.897434 3.027394 -1.758231 2.392813 -2.392813 
C 1.758231 -3.027394 0.897434 -3.383948 0 -3.383948 
C -0.897434 -3.383948 -1.758231 -3.027394 -2.392813 -2.392813 
C -3.027394 -1.758231 -3.383948 -0.897434 -3.383948 0 
C -3.383948 0.897434 -3.027394 1.758231 -2.392813 2.392813 
C -1.758231 3.027394 -0.897434 3.383948 0 3.383948 
z
" id="C0_0_120f492f38"/>
    </defs>
    <g clip-path="url(#p3eb6ed2238)">
     <use style="fill:#d83a56;stroke:#d83a56;stroke-width:2.025;" x="77.423845" xlink:href="#C0_0_120f492f38" y="260.488361"/>
    </g>
    <g clip-path="url(#p3eb6ed2238)">
     <use style="fill:#d83a56;stroke:#d83a56;stroke-width:2.025;" x="121.09341" xlink:href="#C0_0_120f492f38" y="266.963043"/>
    </g>
    <g clip-path="url(#p3eb6ed2238)">
     <use style="fill:#d83a56;stroke:#d83a56;stroke-width:2.025;" x="164.762976" xlink:href="#C0_0_120f492f38" y="269.362057"/>
    </g>
    <g clip-path="url(#p3eb6ed2238)">
     <use style="fill:#d83a56;stroke:#d83a56;stroke-width:2.025;" x="208.432541" xlink:href="#C0_0_120f492f38" y="250.212157"/>
    </g>
    <g clip-path="url(#p3eb6ed2238)">
     <use style="fill:#d83a56;stroke:#d83a56;stroke-width:2.025;" x="252.102106" xlink:href="#C0_0_120f492f38" y="260.196353"/>
    </g>
    <g clip-path="url(#p3eb6ed2238)">
     <use style="fill:#d83a56;stroke:#d83a56;stroke-width:2.025;" x="295.771671" xlink:href="#C0_0_120f492f38" y="245.065345"/>
    </g>
    <g clip-path="url(#p3eb6ed2238)">
     <use style="fill:#d83a56;stroke:#d83a56;stroke-width:2.025;" x="339.441236" xlink:href="#C0_0_120f492f38" y="234.471883"/>
    </g>
    <g clip-path="url(#p3eb6ed2238)">
     <use style="fill:#d83a56;stroke:#d83a56;stroke-width:2.025;" x="383.110802" xlink:href="#C0_0_120f492f38" y="265.784149"/>
    </g>
    <g clip-path="url(#p3eb6ed2238)">
     <use style="fill:#d83a56;stroke:#d83a56;stroke-width:2.025;" x="426.780367" xlink:href="#C0_0_120f492f38" y="255.808266"/>
    </g>
    <g clip-path="url(#p3eb6ed2238)">
     <use style="fill:#d83a56;stroke:#d83a56;stroke-width:2.025;" x="470.449932" xlink:href="#C0_0_120f492f38" y="229.201925"/>
    </g>
    <g clip-path="url(#p3eb6ed2238)">
     <use style="fill:#d83a56;stroke:#d83a56;stroke-width:2.025;" x="514.119497" xlink:href="#C0_0_120f492f38" y="202.1613"/>
    </g>
    <g clip-path="url(#p3eb6ed2238)">
     <use style="fill:#d83a56;stroke:#d83a56;stroke-width:2.025;" x="557.789062" xlink:href="#C0_0_120f492f38" y="162.429089"/>
    </g>
    <g clip-path="url(#p3eb6ed2238)">
     <use style="fill:#d83a56;stroke:#d83a56;stroke-width:2.025;" x="601.458628" xlink:href="#C0_0_120f492f38" y="171.937515"/>
    </g>
    <g clip-path="url(#p3eb6ed2238)">
     <use style="fill:#d83a56;stroke:#d83a56;stroke-width:2.025;" x="645.128193" xlink:href="#C0_0_120f492f38" y="152.847069"/>
    </g>
    <g clip-path="url(#p3eb6ed2238)">
     <use style="fill:#d83a56;stroke:#d83a56;stroke-width:2.025;" x="688.797758" xlink:href="#C0_0_120f492f38" y="141.121992"/>
    </g>
    <g clip-path="url(#p3eb6ed2238)">
     <use style="fill:#d83a56;stroke:#d83a56;stroke-width:2.025;" x="732.467323" xlink:href="#C0_0_120f492f38" y="126.428606"/>
    </g>
    <g clip-path="url(#p3eb6ed2238)">
     <use style="fill:#d83a56;stroke:#d83a56;stroke-width:2.025;" x="776.136889" xlink:href="#C0_0_120f492f38" y="128.724344"/>
    </g>
    <g clip-path="url(#p3eb6ed2238)">
     <use style="fill:#d83a56;stroke:#d83a56;stroke-width:2.025;" x="819.806454" xlink:href="#C0_0_120f492f38" y="107.964279"/>
    </g>
    <g clip-path="url(#p3eb6ed2238)">
     <use style="fill:#d83a56;stroke:#d83a56;stroke-width:2.025;" x="863.476019" xlink:href="#C0_0_120f492f38" y="84.315085"/>
    </g>
    <g clip-path="url(#p3eb6ed2238)">
     <use style="fill:#d83a56;stroke:#d83a56;stroke-width:2.025;" x="907.145584" xlink:href="#C0_0_120f492f38" y="84.725045"/>
    </g>
    <g clip-path="url(#p3eb6ed2238)">
     <use style="fill:#d83a56;stroke:#d83a56;stroke-width:2.025;" x="950.815149" xlink:href="#C0_0_120f492f38" y="88.04231"/>
    </g>
    <g clip-path="url(#p3eb6ed2238)">
     <use style="fill:#d83a56;stroke:#d83a56;stroke-width:2.025;" x="994.484715" xlink:href="#C0_0_120f492f38" y="71.708187"/>
    </g>
    <g clip-path="url(#p3eb6ed2238)">
     <use style="fill:#d83a56;stroke:#d83a56;stroke-width:2.025;" x="1038.15428" xlink:href="#C0_0_120f492f38" y="65.080399"/>
    </g>
   </g>
   <g id="line2d_19">
    <path clip-path="url(#p3eb6ed2238)" d="M 77.423845 260.488361 
L 121.09341 266.963043 
L 164.762976 269.362057 
L 208.432541 250.212157 
L 252.102106 260.196353 
L 295.771671 245.065345 
L 339.441236 234.471883 
L 383.110802 265.784149 
L 426.780367 255.808266 
L 470.449932 229.201925 
L 514.119497 202.1613 
L 557.789062 162.429089 
L 601.458628 171.937515 
L 645.128193 152.847069 
L 688.797758 141.121992 
L 732.467323 126.428606 
L 776.136889 128.724344 
L 819.806454 107.964279 
L 863.476019 84.315085 
L 907.145584 84.725045 
L 950.815149 88.04231 
L 994.484715 71.708187 
L 1038.15428 65.080399 
" style="fill:none;stroke:#d83a56;stroke-linecap:round;stroke-width:2.7;"/>
   </g>
   <g id="line2d_20">
    <path clip-path="url(#p3eb6ed2238)" d="M 77.423845 275.368867 
L 77.423845 246.606948 
" style="fill:none;stroke:#d83a56;stroke-linecap:round;stroke-width:2.7;"/>
   </g>
   <g id="line2d_21">
    <path clip-path="url(#p3eb6ed2238)" d="M 121.09341 282.920503 
L 121.09341 250.821429 
" style="fill:none;stroke:#d83a56;stroke-linecap:round;stroke-width:2.7;"/>
   </g>
   <g id="line2d_22">
    <path clip-path="url(#p3eb6ed2238)" d="M 164.762976 285.574361 
L 164.762976 254.659043 
" style="fill:none;stroke:#d83a56;stroke-linecap:round;stroke-width:2.7;"/>
   </g>
   <g id="line2d_23">
    <path clip-path="url(#p3eb6ed2238)" d="M 208.432541 266.567704 
L 208.432541 233.89882 
" style="fill:none;stroke:#d83a56;stroke-linecap:round;stroke-width:2.7;"/>
   </g>
   <g id="line2d_24">
    <path clip-path="url(#p3eb6ed2238)" d="M 252.102106 275.032109 
L 252.102106 244.394573 
" style="fill:none;stroke:#d83a56;stroke-linecap:round;stroke-width:2.7;"/>
   </g>
   <g id="line2d_25">
    <path clip-path="url(#p3eb6ed2238)" d="M 295.771671 277.349684 
L 295.771671 214.336262 
" style="fill:none;stroke:#d83a56;stroke-linecap:round;stroke-width:2.7;"/>
   </g>
   <g id="line2d_26">
    <path clip-path="url(#p3eb6ed2238)" d="M 339.441236 268.367859 
L 339.441236 201.577917 
" style="fill:none;stroke:#d83a56;stroke-linecap:round;stroke-width:2.7;"/>
   </g>
   <g id="line2d_27">
    <path clip-path="url(#p3eb6ed2238)" d="M 383.110802 278.925997 
L 383.110802 252.626349 
" style="fill:none;stroke:#d83a56;stroke-linecap:round;stroke-width:2.7;"/>
   </g>
   <g id="line2d_28">
    <path clip-path="url(#p3eb6ed2238)" d="M 426.780367 268.64727 
L 426.780367 241.621084 
" style="fill:none;stroke:#d83a56;stroke-linecap:round;stroke-width:2.7;"/>
   </g>
   <g id="line2d_29">
    <path clip-path="url(#p3eb6ed2238)" d="M 470.449932 241.680636 
L 470.449932 215.869442 
" style="fill:none;stroke:#d83a56;stroke-linecap:round;stroke-width:2.7;"/>
   </g>
   <g id="line2d_30">
    <path clip-path="url(#p3eb6ed2238)" d="M 514.119497 215.302597 
L 514.119497 189.289429 
" style="fill:none;stroke:#d83a56;stroke-linecap:round;stroke-width:2.7;"/>
   </g>
   <g id="line2d_31">
    <path clip-path="url(#p3eb6ed2238)" d="M 557.789062 177.118404 
L 557.789062 147.44767 
" style="fill:none;stroke:#d83a56;stroke-linecap:round;stroke-width:2.7;"/>
   </g>
   <g id="line2d_32">
    <path clip-path="url(#p3eb6ed2238)" d="M 601.458628 186.226737 
L 601.458628 157.634499 
" style="fill:none;stroke:#d83a56;stroke-linecap:round;stroke-width:2.7;"/>
   </g>
   <g id="line2d_33">
    <path clip-path="url(#p3eb6ed2238)" d="M 645.128193 167.274217 
L 645.128193 138.100487 
" style="fill:none;stroke:#d83a56;stroke-linecap:round;stroke-width:2.7;"/>
   </g>
   <g id="line2d_34">
    <path clip-path="url(#p3eb6ed2238)" d="M 688.797758 154.16518 
L 688.797758 126.837526 
" style="fill:none;stroke:#d83a56;stroke-linecap:round;stroke-width:2.7;"/>
   </g>
   <g id="line2d_35">
    <path clip-path="url(#p3eb6ed2238)" d="M 732.467323 141.118137 
L 732.467323 110.453001 
" style="fill:none;stroke:#d83a56;stroke-linecap:round;stroke-width:2.7;"/>
   </g>
   <g id="line2d_36">
    <path clip-path="url(#p3eb6ed2238)" d="M 776.136889 142.60372 
L 776.136889 115.1862 
" style="fill:none;stroke:#d83a56;stroke-linecap:round;stroke-width:2.7;"/>
   </g>
   <g id="line2d_37">
    <path clip-path="url(#p3eb6ed2238)" d="M 819.806454 121.941395 
L 819.806454 93.17292 
" style="fill:none;stroke:#d83a56;stroke-linecap:round;stroke-width:2.7;"/>
   </g>
   <g id="line2d_38">
    <path clip-path="url(#p3eb6ed2238)" d="M 863.476019 101.338471 
L 863.476019 67.725589 
" style="fill:none;stroke:#d83a56;stroke-linecap:round;stroke-width:2.7;"/>
   </g>
   <g id="line2d_39">
    <path clip-path="url(#p3eb6ed2238)" d="M 907.145584 99.14932 
L 907.145584 69.996786 
" style="fill:none;stroke:#d83a56;stroke-linecap:round;stroke-width:2.7;"/>
   </g>
   <g id="line2d_40">
    <path clip-path="url(#p3eb6ed2238)" d="M 950.815149 100.854657 
L 950.815149 74.202954 
" style="fill:none;stroke:#d83a56;stroke-linecap:round;stroke-width:2.7;"/>
   </g>
   <g id="line2d_41">
    <path clip-path="url(#p3eb6ed2238)" d="M 994.484715 85.860464 
L 994.484715 58.226018 
" style="fill:none;stroke:#d83a56;stroke-linecap:round;stroke-width:2.7;"/>
   </g>
   <g id="line2d_42">
    <path clip-path="url(#p3eb6ed2238)" d="M 1038.15428 93.452919 
L 1038.15428 38.483452 
" style="fill:none;stroke:#d83a56;stroke-linecap:round;stroke-width:2.7;"/>
   </g>
   <g id="patch_28">
    <path d="M 55.589063 297.928906 
L 55.589063 26.128906 
" style="fill:none;stroke:#cccccc;stroke-linecap:square;stroke-linejoin:miter;"/>
   </g>
   <g id="patch_29">
    <path d="M 1059.989063 297.928906 
L 1059.989063 26.128906 
" style="fill:none;stroke:#cccccc;stroke-linecap:square;stroke-linejoin:miter;"/>
   </g>
   <g id="patch_30">
    <path d="M 55.589063 297.928906 
L 1059.989062 297.928906 
" style="fill:none;stroke:#cccccc;stroke-linecap:square;stroke-linejoin:miter;"/>
   </g>
   <g id="patch_31">
    <path d="M 55.589063 26.128906 
L 1059.989062 26.128906 
" style="fill:none;stroke:#cccccc;stroke-linecap:square;stroke-linejoin:miter;"/>
   </g>
  </g>
  <g id="legend_1">
   <g id="patch_32">
    <path d="M 60.293281 59.774219 
L 193.444844 59.774219 
Q 195.444844 59.774219 195.444844 57.774219 
L 195.444844 30.483594 
Q 195.444844 28.483594 193.444844 28.483594 
L 60.293281 28.483594 
Q 58.293281 28.483594 58.293281 30.483594 
L 58.293281 57.774219 
Q 58.293281 59.774219 60.293281 59.774219 
z
" style="fill:#ffffff;opacity:0.8;stroke:#cccccc;stroke-linejoin:miter;stroke-width:0.5;"/>
   </g>
   <g id="patch_33">
    <path d="M 62.293281 39.641406 
L 82.293281 39.641406 
L 82.293281 32.641406 
L 62.293281 32.641406 
z
" style="fill:#475d75;stroke:#ffffff;stroke-linejoin:miter;stroke-width:0.5;"/>
   </g>
   <g id="text_63">
    <!-- Number of Transaction -->
    <g style="fill:#262626;" transform="translate(90.293281 39.641406)scale(0.1 -0.1)">
     <use xlink:href="#ArialMT-4e"/>
     <use x="72.216797" xlink:href="#ArialMT-75"/>
     <use x="127.832031" xlink:href="#ArialMT-6d"/>
     <use x="211.132812" xlink:href="#ArialMT-62"/>
     <use x="266.748047" xlink:href="#ArialMT-65"/>
     <use x="322.363281" xlink:href="#ArialMT-72"/>
     <use x="355.664062" xlink:href="#ArialMT-20"/>
     <use x="383.447266" xlink:href="#ArialMT-6f"/>
     <use x="439.0625" xlink:href="#ArialMT-66"/>
     <use x="466.845703" xlink:href="#ArialMT-20"/>
     <use x="492.878906" xlink:href="#ArialMT-54"/>
     <use x="550.212891" xlink:href="#ArialMT-72"/>
     <use x="583.513672" xlink:href="#ArialMT-61"/>
     <use x="639.128906" xlink:href="#ArialMT-6e"/>
     <use x="694.744141" xlink:href="#ArialMT-73"/>
     <use x="744.744141" xlink:href="#ArialMT-61"/>
     <use x="800.359375" xlink:href="#ArialMT-63"/>
     <use x="850.359375" xlink:href="#ArialMT-74"/>
     <use x="878.142578" xlink:href="#ArialMT-69"/>
     <use x="900.359375" xlink:href="#ArialMT-6f"/>
     <use x="955.974609" xlink:href="#ArialMT-6e"/>
    </g>
   </g>
   <g id="line2d_43">
    <path d="M 62.293281 50.286719 
L 82.293281 50.286719 
" style="fill:none;stroke:#d83a56;stroke-linecap:round;stroke-width:2.7;"/>
   </g>
   <g id="line2d_44"/>
   <g id="text_64">
    <!-- Mean Resale Price -->
    <g style="fill:#262626;" transform="translate(90.293281 53.786719)scale(0.1 -0.1)">
     <use xlink:href="#ArialMT-4d"/>
     <use x="83.300781" xlink:href="#ArialMT-65"/>
     <use x="138.916016" xlink:href="#ArialMT-61"/>
     <use x="194.53125" xlink:href="#ArialMT-6e"/>
     <use x="250.146484" xlink:href="#ArialMT-20"/>
     <use x="277.929688" xlink:href="#ArialMT-52"/>
     <use x="350.146484" xlink:href="#ArialMT-65"/>
     <use x="405.761719" xlink:href="#ArialMT-73"/>
     <use x="455.761719" xlink:href="#ArialMT-61"/>
     <use x="511.376953" xlink:href="#ArialMT-6c"/>
     <use x="533.59375" xlink:href="#ArialMT-65"/>
     <use x="589.208984" xlink:href="#ArialMT-20"/>
     <use x="616.992188" xlink:href="#ArialMT-50"/>
     <use x="683.691406" xlink:href="#ArialMT-72"/>
     <use x="716.992188" xlink:href="#ArialMT-69"/>
     <use x="739.208984" xlink:href="#ArialMT-63"/>
     <use x="789.208984" xlink:href="#ArialMT-65"/>
    </g>
   </g>
  </g>
 </g>
 <defs>
  <clipPath id="p3eb6ed2238">
   <rect height="271.8" width="1004.4" x="55.589063" y="26.128906"/>
  </clipPath>
 </defs>
</svg>
