<?xml version="1.0" encoding="utf-8" standalone="no"?>
<!DOCTYPE svg PUBLIC "-//W3C//DTD SVG 1.1//EN"
  "http://www.w3.org/Graphics/SVG/1.1/DTD/svg11.dtd">
<svg height="445.139531pt" version="1.1" viewBox="0 0 747.795863 445.139531" width="747.795863pt" xmlns="http://www.w3.org/2000/svg" xmlns:xlink="http://www.w3.org/1999/xlink">
 <metadata>
  <rdf:RDF xmlns:cc="http://creativecommons.org/ns#" xmlns:dc="http://purl.org/dc/elements/1.1/" xmlns:rdf="http://www.w3.org/1999/02/22-rdf-syntax-ns#">
   <cc:Work>
    <dc:type rdf:resource="http://purl.org/dc/dcmitype/StillImage"/>
    <dc:date>2021-10-08T03:37:20.072007</dc:date>
    <dc:format>image/svg+xml</dc:format>
    <dc:creator>
     <cc:Agent>
      <dc:title>Matplotlib v3.4.3, https://matplotlib.org/</dc:title>
     </cc:Agent>
    </dc:creator>
   </cc:Work>
  </rdf:RDF>
 </metadata>
 <defs>
  <style type="text/css">*{stroke-linecap:butt;stroke-linejoin:round;}</style>
 </defs>
 <g id="figure_1">
  <g id="patch_1">
   <path d="M 0 445.139531 
L 747.795863 445.139531 
L 747.795863 0 
L 0 0 
z
" style="fill:#ffffff;"/>
  </g>
  <g id="axes_1">
   <g id="patch_2">
    <path d="M 55.828125 406.648906 
L 725.428125 406.648906 
L 725.428125 26.128906 
L 55.828125 26.128906 
z
" style="fill:#ffffff;"/>
   </g>
   <g id="matplotlib.axis_1">
    <g id="xtick_1">
     <g id="line2d_1">
      <path clip-path="url(#p81cead8839)" d="M 58.099495 406.648906 
L 58.099495 26.128906 
" style="fill:none;stroke:#cccccc;stroke-linecap:round;stroke-width:0.8;"/>
     </g>
     <g id="text_1">
      <!-- 2019-10 -->
      <g style="fill:#262626;" transform="translate(39.751839 420.806719)scale(0.1 -0.1)">
       <defs>
        <path d="M 3222 541 
L 3222 0 
L 194 0 
Q 188 203 259 391 
Q 375 700 629 1000 
Q 884 1300 1366 1694 
Q 2113 2306 2375 2664 
Q 2638 3022 2638 3341 
Q 2638 3675 2398 3904 
Q 2159 4134 1775 4134 
Q 1369 4134 1125 3890 
Q 881 3647 878 3216 
L 300 3275 
Q 359 3922 746 4261 
Q 1134 4600 1788 4600 
Q 2447 4600 2831 4234 
Q 3216 3869 3216 3328 
Q 3216 3053 3103 2787 
Q 2991 2522 2730 2228 
Q 2469 1934 1863 1422 
Q 1356 997 1212 845 
Q 1069 694 975 541 
L 3222 541 
z
" id="ArialMT-32" transform="scale(0.015625)"/>
        <path d="M 266 2259 
Q 266 3072 433 3567 
Q 600 4063 929 4331 
Q 1259 4600 1759 4600 
Q 2128 4600 2406 4451 
Q 2684 4303 2865 4023 
Q 3047 3744 3150 3342 
Q 3253 2941 3253 2259 
Q 3253 1453 3087 958 
Q 2922 463 2592 192 
Q 2263 -78 1759 -78 
Q 1097 -78 719 397 
Q 266 969 266 2259 
z
M 844 2259 
Q 844 1131 1108 757 
Q 1372 384 1759 384 
Q 2147 384 2411 759 
Q 2675 1134 2675 2259 
Q 2675 3391 2411 3762 
Q 2147 4134 1753 4134 
Q 1366 4134 1134 3806 
Q 844 3388 844 2259 
z
" id="ArialMT-30" transform="scale(0.015625)"/>
        <path d="M 2384 0 
L 1822 0 
L 1822 3584 
Q 1619 3391 1289 3197 
Q 959 3003 697 2906 
L 697 3450 
Q 1169 3672 1522 3987 
Q 1875 4303 2022 4600 
L 2384 4600 
L 2384 0 
z
" id="ArialMT-31" transform="scale(0.015625)"/>
        <path d="M 350 1059 
L 891 1109 
Q 959 728 1153 556 
Q 1347 384 1650 384 
Q 1909 384 2104 503 
Q 2300 622 2425 820 
Q 2550 1019 2634 1356 
Q 2719 1694 2719 2044 
Q 2719 2081 2716 2156 
Q 2547 1888 2255 1720 
Q 1963 1553 1622 1553 
Q 1053 1553 659 1965 
Q 266 2378 266 3053 
Q 266 3750 677 4175 
Q 1088 4600 1706 4600 
Q 2153 4600 2523 4359 
Q 2894 4119 3086 3673 
Q 3278 3228 3278 2384 
Q 3278 1506 3087 986 
Q 2897 466 2520 194 
Q 2144 -78 1638 -78 
Q 1100 -78 759 220 
Q 419 519 350 1059 
z
M 2653 3081 
Q 2653 3566 2395 3850 
Q 2138 4134 1775 4134 
Q 1400 4134 1122 3828 
Q 844 3522 844 3034 
Q 844 2597 1108 2323 
Q 1372 2050 1759 2050 
Q 2150 2050 2401 2323 
Q 2653 2597 2653 3081 
z
" id="ArialMT-39" transform="scale(0.015625)"/>
        <path d="M 203 1375 
L 203 1941 
L 1931 1941 
L 1931 1375 
L 203 1375 
z
" id="ArialMT-2d" transform="scale(0.015625)"/>
       </defs>
       <use xlink:href="#ArialMT-32"/>
       <use x="55.615234" xlink:href="#ArialMT-30"/>
       <use x="111.230469" xlink:href="#ArialMT-31"/>
       <use x="166.845703" xlink:href="#ArialMT-39"/>
       <use x="222.460938" xlink:href="#ArialMT-2d"/>
       <use x="255.761719" xlink:href="#ArialMT-31"/>
       <use x="311.376953" xlink:href="#ArialMT-30"/>
      </g>
     </g>
    </g>
    <g id="xtick_2">
     <g id="line2d_2">
      <path clip-path="url(#p81cead8839)" d="M 141.685927 406.648906 
L 141.685927 26.128906 
" style="fill:none;stroke:#cccccc;stroke-linecap:round;stroke-width:0.8;"/>
     </g>
     <g id="text_2">
      <!-- 2020-01 -->
      <g style="fill:#262626;" transform="translate(123.338271 420.806719)scale(0.1 -0.1)">
       <use xlink:href="#ArialMT-32"/>
       <use x="55.615234" xlink:href="#ArialMT-30"/>
       <use x="111.230469" xlink:href="#ArialMT-32"/>
       <use x="166.845703" xlink:href="#ArialMT-30"/>
       <use x="222.460938" xlink:href="#ArialMT-2d"/>
       <use x="255.761719" xlink:href="#ArialMT-30"/>
       <use x="311.376953" xlink:href="#ArialMT-31"/>
      </g>
     </g>
    </g>
    <g id="xtick_3">
     <g id="line2d_3">
      <path clip-path="url(#p81cead8839)" d="M 224.36381 406.648906 
L 224.36381 26.128906 
" style="fill:none;stroke:#cccccc;stroke-linecap:round;stroke-width:0.8;"/>
     </g>
     <g id="text_3">
      <!-- 2020-04 -->
      <g style="fill:#262626;" transform="translate(206.016154 420.806719)scale(0.1 -0.1)">
       <defs>
        <path d="M 2069 0 
L 2069 1097 
L 81 1097 
L 81 1613 
L 2172 4581 
L 2631 4581 
L 2631 1613 
L 3250 1613 
L 3250 1097 
L 2631 1097 
L 2631 0 
L 2069 0 
z
M 2069 1613 
L 2069 3678 
L 634 1613 
L 2069 1613 
z
" id="ArialMT-34" transform="scale(0.015625)"/>
       </defs>
       <use xlink:href="#ArialMT-32"/>
       <use x="55.615234" xlink:href="#ArialMT-30"/>
       <use x="111.230469" xlink:href="#ArialMT-32"/>
       <use x="166.845703" xlink:href="#ArialMT-30"/>
       <use x="222.460938" xlink:href="#ArialMT-2d"/>
       <use x="255.761719" xlink:href="#ArialMT-30"/>
       <use x="311.376953" xlink:href="#ArialMT-34"/>
      </g>
     </g>
    </g>
    <g id="xtick_4">
     <g id="line2d_4">
      <path clip-path="url(#p81cead8839)" d="M 307.041694 406.648906 
L 307.041694 26.128906 
" style="fill:none;stroke:#cccccc;stroke-linecap:round;stroke-width:0.8;"/>
     </g>
     <g id="text_4">
      <!-- 2020-07 -->
      <g style="fill:#262626;" transform="translate(288.694037 420.806719)scale(0.1 -0.1)">
       <defs>
        <path d="M 303 3981 
L 303 4522 
L 3269 4522 
L 3269 4084 
Q 2831 3619 2401 2847 
Q 1972 2075 1738 1259 
Q 1569 684 1522 0 
L 944 0 
Q 953 541 1156 1306 
Q 1359 2072 1739 2783 
Q 2119 3494 2547 3981 
L 303 3981 
z
" id="ArialMT-37" transform="scale(0.015625)"/>
       </defs>
       <use xlink:href="#ArialMT-32"/>
       <use x="55.615234" xlink:href="#ArialMT-30"/>
       <use x="111.230469" xlink:href="#ArialMT-32"/>
       <use x="166.845703" xlink:href="#ArialMT-30"/>
       <use x="222.460938" xlink:href="#ArialMT-2d"/>
       <use x="255.761719" xlink:href="#ArialMT-30"/>
       <use x="311.376953" xlink:href="#ArialMT-37"/>
      </g>
     </g>
    </g>
    <g id="xtick_5">
     <g id="line2d_5">
      <path clip-path="url(#p81cead8839)" d="M 390.628125 406.648906 
L 390.628125 26.128906 
" style="fill:none;stroke:#cccccc;stroke-linecap:round;stroke-width:0.8;"/>
     </g>
     <g id="text_5">
      <!-- 2020-10 -->
      <g style="fill:#262626;" transform="translate(372.280469 420.806719)scale(0.1 -0.1)">
       <use xlink:href="#ArialMT-32"/>
       <use x="55.615234" xlink:href="#ArialMT-30"/>
       <use x="111.230469" xlink:href="#ArialMT-32"/>
       <use x="166.845703" xlink:href="#ArialMT-30"/>
       <use x="222.460938" xlink:href="#ArialMT-2d"/>
       <use x="255.761719" xlink:href="#ArialMT-31"/>
       <use x="311.376953" xlink:href="#ArialMT-30"/>
      </g>
     </g>
    </g>
    <g id="xtick_6">
     <g id="line2d_6">
      <path clip-path="url(#p81cead8839)" d="M 474.214556 406.648906 
L 474.214556 26.128906 
" style="fill:none;stroke:#cccccc;stroke-linecap:round;stroke-width:0.8;"/>
     </g>
     <g id="text_6">
      <!-- 2021-01 -->
      <g style="fill:#262626;" transform="translate(455.8669 420.806719)scale(0.1 -0.1)">
       <use xlink:href="#ArialMT-32"/>
       <use x="55.615234" xlink:href="#ArialMT-30"/>
       <use x="111.230469" xlink:href="#ArialMT-32"/>
       <use x="166.845703" xlink:href="#ArialMT-31"/>
       <use x="222.460938" xlink:href="#ArialMT-2d"/>
       <use x="255.761719" xlink:href="#ArialMT-30"/>
       <use x="311.376953" xlink:href="#ArialMT-31"/>
      </g>
     </g>
    </g>
    <g id="xtick_7">
     <g id="line2d_7">
      <path clip-path="url(#p81cead8839)" d="M 555.983892 406.648906 
L 555.983892 26.128906 
" style="fill:none;stroke:#cccccc;stroke-linecap:round;stroke-width:0.8;"/>
     </g>
     <g id="text_7">
      <!-- 2021-04 -->
      <g style="fill:#262626;" transform="translate(537.636235 420.806719)scale(0.1 -0.1)">
       <use xlink:href="#ArialMT-32"/>
       <use x="55.615234" xlink:href="#ArialMT-30"/>
       <use x="111.230469" xlink:href="#ArialMT-32"/>
       <use x="166.845703" xlink:href="#ArialMT-31"/>
       <use x="222.460938" xlink:href="#ArialMT-2d"/>
       <use x="255.761719" xlink:href="#ArialMT-30"/>
       <use x="311.376953" xlink:href="#ArialMT-34"/>
      </g>
     </g>
    </g>
    <g id="xtick_8">
     <g id="line2d_8">
      <path clip-path="url(#p81cead8839)" d="M 638.661775 406.648906 
L 638.661775 26.128906 
" style="fill:none;stroke:#cccccc;stroke-linecap:round;stroke-width:0.8;"/>
     </g>
     <g id="text_8">
      <!-- 2021-07 -->
      <g style="fill:#262626;" transform="translate(620.314119 420.806719)scale(0.1 -0.1)">
       <use xlink:href="#ArialMT-32"/>
       <use x="55.615234" xlink:href="#ArialMT-30"/>
       <use x="111.230469" xlink:href="#ArialMT-32"/>
       <use x="166.845703" xlink:href="#ArialMT-31"/>
       <use x="222.460938" xlink:href="#ArialMT-2d"/>
       <use x="255.761719" xlink:href="#ArialMT-30"/>
       <use x="311.376953" xlink:href="#ArialMT-37"/>
      </g>
     </g>
    </g>
    <g id="xtick_9">
     <g id="line2d_9">
      <path clip-path="url(#p81cead8839)" d="M 722.248206 406.648906 
L 722.248206 26.128906 
" style="fill:none;stroke:#cccccc;stroke-linecap:round;stroke-width:0.8;"/>
     </g>
     <g id="text_9">
      <!-- 2021-10 -->
      <g style="fill:#262626;" transform="translate(703.90055 420.806719)scale(0.1 -0.1)">
       <use xlink:href="#ArialMT-32"/>
       <use x="55.615234" xlink:href="#ArialMT-30"/>
       <use x="111.230469" xlink:href="#ArialMT-32"/>
       <use x="166.845703" xlink:href="#ArialMT-31"/>
       <use x="222.460938" xlink:href="#ArialMT-2d"/>
       <use x="255.761719" xlink:href="#ArialMT-31"/>
       <use x="311.376953" xlink:href="#ArialMT-30"/>
      </g>
     </g>
    </g>
    <g id="text_10">
     <!-- Transaction Month -->
     <g style="fill:#262626;" transform="translate(349.410156 435.952031)scale(0.1 -0.1)">
      <defs>
       <path d="M 1659 0 
L 1659 4041 
L 150 4041 
L 150 4581 
L 3781 4581 
L 3781 4041 
L 2266 4041 
L 2266 0 
L 1659 0 
z
" id="ArialMT-54" transform="scale(0.015625)"/>
       <path d="M 416 0 
L 416 3319 
L 922 3319 
L 922 2816 
Q 1116 3169 1280 3281 
Q 1444 3394 1641 3394 
Q 1925 3394 2219 3213 
L 2025 2691 
Q 1819 2813 1613 2813 
Q 1428 2813 1281 2702 
Q 1134 2591 1072 2394 
Q 978 2094 978 1738 
L 978 0 
L 416 0 
z
" id="ArialMT-72" transform="scale(0.015625)"/>
       <path d="M 2588 409 
Q 2275 144 1986 34 
Q 1697 -75 1366 -75 
Q 819 -75 525 192 
Q 231 459 231 875 
Q 231 1119 342 1320 
Q 453 1522 633 1644 
Q 813 1766 1038 1828 
Q 1203 1872 1538 1913 
Q 2219 1994 2541 2106 
Q 2544 2222 2544 2253 
Q 2544 2597 2384 2738 
Q 2169 2928 1744 2928 
Q 1347 2928 1158 2789 
Q 969 2650 878 2297 
L 328 2372 
Q 403 2725 575 2942 
Q 747 3159 1072 3276 
Q 1397 3394 1825 3394 
Q 2250 3394 2515 3294 
Q 2781 3194 2906 3042 
Q 3031 2891 3081 2659 
Q 3109 2516 3109 2141 
L 3109 1391 
Q 3109 606 3145 398 
Q 3181 191 3288 0 
L 2700 0 
Q 2613 175 2588 409 
z
M 2541 1666 
Q 2234 1541 1622 1453 
Q 1275 1403 1131 1340 
Q 988 1278 909 1158 
Q 831 1038 831 891 
Q 831 666 1001 516 
Q 1172 366 1500 366 
Q 1825 366 2078 508 
Q 2331 650 2450 897 
Q 2541 1088 2541 1459 
L 2541 1666 
z
" id="ArialMT-61" transform="scale(0.015625)"/>
       <path d="M 422 0 
L 422 3319 
L 928 3319 
L 928 2847 
Q 1294 3394 1984 3394 
Q 2284 3394 2536 3286 
Q 2788 3178 2913 3003 
Q 3038 2828 3088 2588 
Q 3119 2431 3119 2041 
L 3119 0 
L 2556 0 
L 2556 2019 
Q 2556 2363 2490 2533 
Q 2425 2703 2258 2804 
Q 2091 2906 1866 2906 
Q 1506 2906 1245 2678 
Q 984 2450 984 1813 
L 984 0 
L 422 0 
z
" id="ArialMT-6e" transform="scale(0.015625)"/>
       <path d="M 197 991 
L 753 1078 
Q 800 744 1014 566 
Q 1228 388 1613 388 
Q 2000 388 2187 545 
Q 2375 703 2375 916 
Q 2375 1106 2209 1216 
Q 2094 1291 1634 1406 
Q 1016 1563 777 1677 
Q 538 1791 414 1992 
Q 291 2194 291 2438 
Q 291 2659 392 2848 
Q 494 3038 669 3163 
Q 800 3259 1026 3326 
Q 1253 3394 1513 3394 
Q 1903 3394 2198 3281 
Q 2494 3169 2634 2976 
Q 2775 2784 2828 2463 
L 2278 2388 
Q 2241 2644 2061 2787 
Q 1881 2931 1553 2931 
Q 1166 2931 1000 2803 
Q 834 2675 834 2503 
Q 834 2394 903 2306 
Q 972 2216 1119 2156 
Q 1203 2125 1616 2013 
Q 2213 1853 2448 1751 
Q 2684 1650 2818 1456 
Q 2953 1263 2953 975 
Q 2953 694 2789 445 
Q 2625 197 2315 61 
Q 2006 -75 1616 -75 
Q 969 -75 630 194 
Q 291 463 197 991 
z
" id="ArialMT-73" transform="scale(0.015625)"/>
       <path d="M 2588 1216 
L 3141 1144 
Q 3050 572 2676 248 
Q 2303 -75 1759 -75 
Q 1078 -75 664 370 
Q 250 816 250 1647 
Q 250 2184 428 2587 
Q 606 2991 970 3192 
Q 1334 3394 1763 3394 
Q 2303 3394 2647 3120 
Q 2991 2847 3088 2344 
L 2541 2259 
Q 2463 2594 2264 2762 
Q 2066 2931 1784 2931 
Q 1359 2931 1093 2626 
Q 828 2322 828 1663 
Q 828 994 1084 691 
Q 1341 388 1753 388 
Q 2084 388 2306 591 
Q 2528 794 2588 1216 
z
" id="ArialMT-63" transform="scale(0.015625)"/>
       <path d="M 1650 503 
L 1731 6 
Q 1494 -44 1306 -44 
Q 1000 -44 831 53 
Q 663 150 594 308 
Q 525 466 525 972 
L 525 2881 
L 113 2881 
L 113 3319 
L 525 3319 
L 525 4141 
L 1084 4478 
L 1084 3319 
L 1650 3319 
L 1650 2881 
L 1084 2881 
L 1084 941 
Q 1084 700 1114 631 
Q 1144 563 1211 522 
Q 1278 481 1403 481 
Q 1497 481 1650 503 
z
" id="ArialMT-74" transform="scale(0.015625)"/>
       <path d="M 425 3934 
L 425 4581 
L 988 4581 
L 988 3934 
L 425 3934 
z
M 425 0 
L 425 3319 
L 988 3319 
L 988 0 
L 425 0 
z
" id="ArialMT-69" transform="scale(0.015625)"/>
       <path d="M 213 1659 
Q 213 2581 725 3025 
Q 1153 3394 1769 3394 
Q 2453 3394 2887 2945 
Q 3322 2497 3322 1706 
Q 3322 1066 3130 698 
Q 2938 331 2570 128 
Q 2203 -75 1769 -75 
Q 1072 -75 642 372 
Q 213 819 213 1659 
z
M 791 1659 
Q 791 1022 1069 705 
Q 1347 388 1769 388 
Q 2188 388 2466 706 
Q 2744 1025 2744 1678 
Q 2744 2294 2464 2611 
Q 2184 2928 1769 2928 
Q 1347 2928 1069 2612 
Q 791 2297 791 1659 
z
" id="ArialMT-6f" transform="scale(0.015625)"/>
       <path id="ArialMT-20" transform="scale(0.015625)"/>
       <path d="M 475 0 
L 475 4581 
L 1388 4581 
L 2472 1338 
Q 2622 884 2691 659 
Q 2769 909 2934 1394 
L 4031 4581 
L 4847 4581 
L 4847 0 
L 4263 0 
L 4263 3834 
L 2931 0 
L 2384 0 
L 1059 3900 
L 1059 0 
L 475 0 
z
" id="ArialMT-4d" transform="scale(0.015625)"/>
       <path d="M 422 0 
L 422 4581 
L 984 4581 
L 984 2938 
Q 1378 3394 1978 3394 
Q 2347 3394 2619 3248 
Q 2891 3103 3008 2847 
Q 3125 2591 3125 2103 
L 3125 0 
L 2563 0 
L 2563 2103 
Q 2563 2525 2380 2717 
Q 2197 2909 1863 2909 
Q 1613 2909 1392 2779 
Q 1172 2650 1078 2428 
Q 984 2206 984 1816 
L 984 0 
L 422 0 
z
" id="ArialMT-68" transform="scale(0.015625)"/>
      </defs>
      <use xlink:href="#ArialMT-54"/>
      <use x="57.333984" xlink:href="#ArialMT-72"/>
      <use x="90.634766" xlink:href="#ArialMT-61"/>
      <use x="146.25" xlink:href="#ArialMT-6e"/>
      <use x="201.865234" xlink:href="#ArialMT-73"/>
      <use x="251.865234" xlink:href="#ArialMT-61"/>
      <use x="307.480469" xlink:href="#ArialMT-63"/>
      <use x="357.480469" xlink:href="#ArialMT-74"/>
      <use x="385.263672" xlink:href="#ArialMT-69"/>
      <use x="407.480469" xlink:href="#ArialMT-6f"/>
      <use x="463.095703" xlink:href="#ArialMT-6e"/>
      <use x="518.710938" xlink:href="#ArialMT-20"/>
      <use x="546.494141" xlink:href="#ArialMT-4d"/>
      <use x="629.794922" xlink:href="#ArialMT-6f"/>
      <use x="685.410156" xlink:href="#ArialMT-6e"/>
      <use x="741.025391" xlink:href="#ArialMT-74"/>
      <use x="768.808594" xlink:href="#ArialMT-68"/>
     </g>
    </g>
   </g>
   <g id="matplotlib.axis_2">
    <g id="ytick_1">
     <g id="line2d_10">
      <path clip-path="url(#p81cead8839)" d="M 55.828125 371.471683 
L 725.428125 371.471683 
" style="fill:none;stroke:#cccccc;stroke-linecap:round;stroke-width:0.8;"/>
     </g>
     <g id="text_11">
      <!-- 200 -->
      <g style="fill:#262626;" transform="translate(32.145313 375.050589)scale(0.1 -0.1)">
       <use xlink:href="#ArialMT-32"/>
       <use x="55.615234" xlink:href="#ArialMT-30"/>
       <use x="111.230469" xlink:href="#ArialMT-30"/>
      </g>
     </g>
    </g>
    <g id="ytick_2">
     <g id="line2d_11">
      <path clip-path="url(#p81cead8839)" d="M 55.828125 288.304893 
L 725.428125 288.304893 
" style="fill:none;stroke:#cccccc;stroke-linecap:round;stroke-width:0.8;"/>
     </g>
     <g id="text_12">
      <!-- 400 -->
      <g style="fill:#262626;" transform="translate(32.145313 291.883799)scale(0.1 -0.1)">
       <use xlink:href="#ArialMT-34"/>
       <use x="55.615234" xlink:href="#ArialMT-30"/>
       <use x="111.230469" xlink:href="#ArialMT-30"/>
      </g>
     </g>
    </g>
    <g id="ytick_3">
     <g id="line2d_12">
      <path clip-path="url(#p81cead8839)" d="M 55.828125 205.138103 
L 725.428125 205.138103 
" style="fill:none;stroke:#cccccc;stroke-linecap:round;stroke-width:0.8;"/>
     </g>
     <g id="text_13">
      <!-- 600 -->
      <g style="fill:#262626;" transform="translate(32.145313 208.717009)scale(0.1 -0.1)">
       <defs>
        <path d="M 3184 3459 
L 2625 3416 
Q 2550 3747 2413 3897 
Q 2184 4138 1850 4138 
Q 1581 4138 1378 3988 
Q 1113 3794 959 3422 
Q 806 3050 800 2363 
Q 1003 2672 1297 2822 
Q 1591 2972 1913 2972 
Q 2475 2972 2870 2558 
Q 3266 2144 3266 1488 
Q 3266 1056 3080 686 
Q 2894 316 2569 119 
Q 2244 -78 1831 -78 
Q 1128 -78 684 439 
Q 241 956 241 2144 
Q 241 3472 731 4075 
Q 1159 4600 1884 4600 
Q 2425 4600 2770 4297 
Q 3116 3994 3184 3459 
z
M 888 1484 
Q 888 1194 1011 928 
Q 1134 663 1356 523 
Q 1578 384 1822 384 
Q 2178 384 2434 671 
Q 2691 959 2691 1453 
Q 2691 1928 2437 2201 
Q 2184 2475 1800 2475 
Q 1419 2475 1153 2201 
Q 888 1928 888 1484 
z
" id="ArialMT-36" transform="scale(0.015625)"/>
       </defs>
       <use xlink:href="#ArialMT-36"/>
       <use x="55.615234" xlink:href="#ArialMT-30"/>
       <use x="111.230469" xlink:href="#ArialMT-30"/>
      </g>
     </g>
    </g>
    <g id="ytick_4">
     <g id="line2d_13">
      <path clip-path="url(#p81cead8839)" d="M 55.828125 121.971313 
L 725.428125 121.971313 
" style="fill:none;stroke:#cccccc;stroke-linecap:round;stroke-width:0.8;"/>
     </g>
     <g id="text_14">
      <!-- 800 -->
      <g style="fill:#262626;" transform="translate(32.145313 125.550219)scale(0.1 -0.1)">
       <defs>
        <path d="M 1131 2484 
Q 781 2613 612 2850 
Q 444 3088 444 3419 
Q 444 3919 803 4259 
Q 1163 4600 1759 4600 
Q 2359 4600 2725 4251 
Q 3091 3903 3091 3403 
Q 3091 3084 2923 2848 
Q 2756 2613 2416 2484 
Q 2838 2347 3058 2040 
Q 3278 1734 3278 1309 
Q 3278 722 2862 322 
Q 2447 -78 1769 -78 
Q 1091 -78 675 323 
Q 259 725 259 1325 
Q 259 1772 486 2073 
Q 713 2375 1131 2484 
z
M 1019 3438 
Q 1019 3113 1228 2906 
Q 1438 2700 1772 2700 
Q 2097 2700 2305 2904 
Q 2513 3109 2513 3406 
Q 2513 3716 2298 3927 
Q 2084 4138 1766 4138 
Q 1444 4138 1231 3931 
Q 1019 3725 1019 3438 
z
M 838 1322 
Q 838 1081 952 856 
Q 1066 631 1291 507 
Q 1516 384 1775 384 
Q 2178 384 2440 643 
Q 2703 903 2703 1303 
Q 2703 1709 2433 1975 
Q 2163 2241 1756 2241 
Q 1359 2241 1098 1978 
Q 838 1716 838 1322 
z
" id="ArialMT-38" transform="scale(0.015625)"/>
       </defs>
       <use xlink:href="#ArialMT-38"/>
       <use x="55.615234" xlink:href="#ArialMT-30"/>
       <use x="111.230469" xlink:href="#ArialMT-30"/>
      </g>
     </g>
    </g>
    <g id="ytick_5">
     <g id="line2d_14">
      <path clip-path="url(#p81cead8839)" d="M 55.828125 38.804523 
L 725.428125 38.804523 
" style="fill:none;stroke:#cccccc;stroke-linecap:round;stroke-width:0.8;"/>
     </g>
     <g id="text_15">
      <!-- 1000 -->
      <g style="fill:#262626;" transform="translate(26.584375 42.383429)scale(0.1 -0.1)">
       <use xlink:href="#ArialMT-31"/>
       <use x="55.615234" xlink:href="#ArialMT-30"/>
       <use x="111.230469" xlink:href="#ArialMT-30"/>
       <use x="166.845703" xlink:href="#ArialMT-30"/>
      </g>
     </g>
    </g>
    <g id="text_16">
     <!-- Mean Resale Price in SGD (thousands) -->
     <g style="fill:#262626;" transform="translate(14.479688 303.923281)rotate(-90)scale(0.1 -0.1)">
      <defs>
       <path d="M 2694 1069 
L 3275 997 
Q 3138 488 2766 206 
Q 2394 -75 1816 -75 
Q 1088 -75 661 373 
Q 234 822 234 1631 
Q 234 2469 665 2931 
Q 1097 3394 1784 3394 
Q 2450 3394 2872 2941 
Q 3294 2488 3294 1666 
Q 3294 1616 3291 1516 
L 816 1516 
Q 847 969 1125 678 
Q 1403 388 1819 388 
Q 2128 388 2347 550 
Q 2566 713 2694 1069 
z
M 847 1978 
L 2700 1978 
Q 2663 2397 2488 2606 
Q 2219 2931 1791 2931 
Q 1403 2931 1139 2672 
Q 875 2413 847 1978 
z
" id="ArialMT-65" transform="scale(0.015625)"/>
       <path d="M 503 0 
L 503 4581 
L 2534 4581 
Q 3147 4581 3465 4457 
Q 3784 4334 3975 4021 
Q 4166 3709 4166 3331 
Q 4166 2844 3850 2509 
Q 3534 2175 2875 2084 
Q 3116 1969 3241 1856 
Q 3506 1613 3744 1247 
L 4541 0 
L 3778 0 
L 3172 953 
Q 2906 1366 2734 1584 
Q 2563 1803 2427 1890 
Q 2291 1978 2150 2013 
Q 2047 2034 1813 2034 
L 1109 2034 
L 1109 0 
L 503 0 
z
M 1109 2559 
L 2413 2559 
Q 2828 2559 3062 2645 
Q 3297 2731 3419 2920 
Q 3541 3109 3541 3331 
Q 3541 3656 3305 3865 
Q 3069 4075 2559 4075 
L 1109 4075 
L 1109 2559 
z
" id="ArialMT-52" transform="scale(0.015625)"/>
       <path d="M 409 0 
L 409 4581 
L 972 4581 
L 972 0 
L 409 0 
z
" id="ArialMT-6c" transform="scale(0.015625)"/>
       <path d="M 494 0 
L 494 4581 
L 2222 4581 
Q 2678 4581 2919 4538 
Q 3256 4481 3484 4323 
Q 3713 4166 3852 3881 
Q 3991 3597 3991 3256 
Q 3991 2672 3619 2267 
Q 3247 1863 2275 1863 
L 1100 1863 
L 1100 0 
L 494 0 
z
M 1100 2403 
L 2284 2403 
Q 2872 2403 3119 2622 
Q 3366 2841 3366 3238 
Q 3366 3525 3220 3729 
Q 3075 3934 2838 4000 
Q 2684 4041 2272 4041 
L 1100 4041 
L 1100 2403 
z
" id="ArialMT-50" transform="scale(0.015625)"/>
       <path d="M 288 1472 
L 859 1522 
Q 900 1178 1048 958 
Q 1197 738 1509 602 
Q 1822 466 2213 466 
Q 2559 466 2825 569 
Q 3091 672 3220 851 
Q 3350 1031 3350 1244 
Q 3350 1459 3225 1620 
Q 3100 1781 2813 1891 
Q 2628 1963 1997 2114 
Q 1366 2266 1113 2400 
Q 784 2572 623 2826 
Q 463 3081 463 3397 
Q 463 3744 659 4045 
Q 856 4347 1234 4503 
Q 1613 4659 2075 4659 
Q 2584 4659 2973 4495 
Q 3363 4331 3572 4012 
Q 3781 3694 3797 3291 
L 3216 3247 
Q 3169 3681 2898 3903 
Q 2628 4125 2100 4125 
Q 1550 4125 1298 3923 
Q 1047 3722 1047 3438 
Q 1047 3191 1225 3031 
Q 1400 2872 2139 2705 
Q 2878 2538 3153 2413 
Q 3553 2228 3743 1945 
Q 3934 1663 3934 1294 
Q 3934 928 3725 604 
Q 3516 281 3123 101 
Q 2731 -78 2241 -78 
Q 1619 -78 1198 103 
Q 778 284 539 648 
Q 300 1013 288 1472 
z
" id="ArialMT-53" transform="scale(0.015625)"/>
       <path d="M 2638 1797 
L 2638 2334 
L 4578 2338 
L 4578 638 
Q 4131 281 3656 101 
Q 3181 -78 2681 -78 
Q 2006 -78 1454 211 
Q 903 500 622 1047 
Q 341 1594 341 2269 
Q 341 2938 620 3517 
Q 900 4097 1425 4378 
Q 1950 4659 2634 4659 
Q 3131 4659 3532 4498 
Q 3934 4338 4162 4050 
Q 4391 3763 4509 3300 
L 3963 3150 
Q 3859 3500 3706 3700 
Q 3553 3900 3268 4020 
Q 2984 4141 2638 4141 
Q 2222 4141 1919 4014 
Q 1616 3888 1430 3681 
Q 1244 3475 1141 3228 
Q 966 2803 966 2306 
Q 966 1694 1177 1281 
Q 1388 869 1791 669 
Q 2194 469 2647 469 
Q 3041 469 3416 620 
Q 3791 772 3984 944 
L 3984 1797 
L 2638 1797 
z
" id="ArialMT-47" transform="scale(0.015625)"/>
       <path d="M 494 0 
L 494 4581 
L 2072 4581 
Q 2606 4581 2888 4516 
Q 3281 4425 3559 4188 
Q 3922 3881 4101 3404 
Q 4281 2928 4281 2316 
Q 4281 1794 4159 1391 
Q 4038 988 3847 723 
Q 3656 459 3429 307 
Q 3203 156 2883 78 
Q 2563 0 2147 0 
L 494 0 
z
M 1100 541 
L 2078 541 
Q 2531 541 2789 625 
Q 3047 709 3200 863 
Q 3416 1078 3536 1442 
Q 3656 1806 3656 2325 
Q 3656 3044 3420 3430 
Q 3184 3816 2847 3947 
Q 2603 4041 2063 4041 
L 1100 4041 
L 1100 541 
z
" id="ArialMT-44" transform="scale(0.015625)"/>
       <path d="M 1497 -1347 
Q 1031 -759 709 28 
Q 388 816 388 1659 
Q 388 2403 628 3084 
Q 909 3875 1497 4659 
L 1900 4659 
Q 1522 4009 1400 3731 
Q 1209 3300 1100 2831 
Q 966 2247 966 1656 
Q 966 153 1900 -1347 
L 1497 -1347 
z
" id="ArialMT-28" transform="scale(0.015625)"/>
       <path d="M 2597 0 
L 2597 488 
Q 2209 -75 1544 -75 
Q 1250 -75 995 37 
Q 741 150 617 320 
Q 494 491 444 738 
Q 409 903 409 1263 
L 409 3319 
L 972 3319 
L 972 1478 
Q 972 1038 1006 884 
Q 1059 663 1231 536 
Q 1403 409 1656 409 
Q 1909 409 2131 539 
Q 2353 669 2445 892 
Q 2538 1116 2538 1541 
L 2538 3319 
L 3100 3319 
L 3100 0 
L 2597 0 
z
" id="ArialMT-75" transform="scale(0.015625)"/>
       <path d="M 2575 0 
L 2575 419 
Q 2259 -75 1647 -75 
Q 1250 -75 917 144 
Q 584 363 401 755 
Q 219 1147 219 1656 
Q 219 2153 384 2558 
Q 550 2963 881 3178 
Q 1213 3394 1622 3394 
Q 1922 3394 2156 3267 
Q 2391 3141 2538 2938 
L 2538 4581 
L 3097 4581 
L 3097 0 
L 2575 0 
z
M 797 1656 
Q 797 1019 1065 703 
Q 1334 388 1700 388 
Q 2069 388 2326 689 
Q 2584 991 2584 1609 
Q 2584 2291 2321 2609 
Q 2059 2928 1675 2928 
Q 1300 2928 1048 2622 
Q 797 2316 797 1656 
z
" id="ArialMT-64" transform="scale(0.015625)"/>
       <path d="M 791 -1347 
L 388 -1347 
Q 1322 153 1322 1656 
Q 1322 2244 1188 2822 
Q 1081 3291 891 3722 
Q 769 4003 388 4659 
L 791 4659 
Q 1378 3875 1659 3084 
Q 1900 2403 1900 1659 
Q 1900 816 1576 28 
Q 1253 -759 791 -1347 
z
" id="ArialMT-29" transform="scale(0.015625)"/>
      </defs>
      <use xlink:href="#ArialMT-4d"/>
      <use x="83.300781" xlink:href="#ArialMT-65"/>
      <use x="138.916016" xlink:href="#ArialMT-61"/>
      <use x="194.53125" xlink:href="#ArialMT-6e"/>
      <use x="250.146484" xlink:href="#ArialMT-20"/>
      <use x="277.929688" xlink:href="#ArialMT-52"/>
      <use x="350.146484" xlink:href="#ArialMT-65"/>
      <use x="405.761719" xlink:href="#ArialMT-73"/>
      <use x="455.761719" xlink:href="#ArialMT-61"/>
      <use x="511.376953" xlink:href="#ArialMT-6c"/>
      <use x="533.59375" xlink:href="#ArialMT-65"/>
      <use x="589.208984" xlink:href="#ArialMT-20"/>
      <use x="616.992188" xlink:href="#ArialMT-50"/>
      <use x="683.691406" xlink:href="#ArialMT-72"/>
      <use x="716.992188" xlink:href="#ArialMT-69"/>
      <use x="739.208984" xlink:href="#ArialMT-63"/>
      <use x="789.208984" xlink:href="#ArialMT-65"/>
      <use x="844.824219" xlink:href="#ArialMT-20"/>
      <use x="872.607422" xlink:href="#ArialMT-69"/>
      <use x="894.824219" xlink:href="#ArialMT-6e"/>
      <use x="950.439453" xlink:href="#ArialMT-20"/>
      <use x="978.222656" xlink:href="#ArialMT-53"/>
      <use x="1044.921875" xlink:href="#ArialMT-47"/>
      <use x="1122.705078" xlink:href="#ArialMT-44"/>
      <use x="1194.921875" xlink:href="#ArialMT-20"/>
      <use x="1222.705078" xlink:href="#ArialMT-28"/>
      <use x="1256.005859" xlink:href="#ArialMT-74"/>
      <use x="1283.789062" xlink:href="#ArialMT-68"/>
      <use x="1339.404297" xlink:href="#ArialMT-6f"/>
      <use x="1395.019531" xlink:href="#ArialMT-75"/>
      <use x="1450.634766" xlink:href="#ArialMT-73"/>
      <use x="1500.634766" xlink:href="#ArialMT-61"/>
      <use x="1556.25" xlink:href="#ArialMT-6e"/>
      <use x="1611.865234" xlink:href="#ArialMT-64"/>
      <use x="1667.480469" xlink:href="#ArialMT-73"/>
      <use x="1717.480469" xlink:href="#ArialMT-29"/>
     </g>
    </g>
   </g>
   <g id="PolyCollection_1">
    <path clip-path="url(#p81cead8839)" d="M 196.198817 386.025871 
L 196.198817 388.105041 
L 196.198817 386.025871 
L 196.198817 386.025871 
z
" style="fill:#e24a33;fill-opacity:0.2;stroke:#e24a33;stroke-opacity:0.2;stroke-width:0.5;"/>
    <path clip-path="url(#p81cead8839)" d="M 279.785248 369.392513 
L 279.785248 379.788362 
L 307.041694 384.778369 
L 418.793118 379.788362 
L 418.793118 365.234174 
L 418.793118 365.234174 
L 307.041694 369.392513 
L 279.785248 369.392513 
z
" style="fill:#e24a33;fill-opacity:0.2;stroke:#e24a33;stroke-opacity:0.2;stroke-width:0.5;"/>
    <path clip-path="url(#p81cead8839)" d="M 502.37955 369.392513 
L 502.37955 379.788362 
L 527.818898 375.630022 
L 527.818898 372.303351 
L 527.818898 372.303351 
L 502.37955 369.392513 
z
" style="fill:#e24a33;fill-opacity:0.2;stroke:#e24a33;stroke-opacity:0.2;stroke-width:0.5;"/>
   </g>
   <g id="PolyCollection_2">
    <defs>
     <path d="M 86.264489 -84.605635 
L 86.264489 -79.361824 
L 113.520934 -80.006481 
L 141.685927 -79.596754 
L 169.85092 -83.531867 
L 196.198817 -83.839284 
L 224.36381 -77.722229 
L 251.620255 -73.977125 
L 279.785248 -83.06896 
L 307.041694 -83.302285 
L 335.206687 -79.705068 
L 363.37168 -83.898184 
L 390.628125 -87.867148 
L 418.793118 -85.288541 
L 446.049563 -87.832885 
L 474.214556 -90.311602 
L 502.37955 -91.378801 
L 527.818898 -94.88986 
L 555.983892 -91.185338 
L 583.240337 -93.785623 
L 611.40533 -92.20472 
L 638.661775 -94.311954 
L 666.826768 -99.299927 
L 694.991761 -97.013955 
L 694.991761 -110.469896 
L 694.991761 -110.469896 
L 666.826768 -107.038894 
L 638.661775 -102.560099 
L 611.40533 -102.616018 
L 583.240337 -103.790028 
L 555.983892 -102.859986 
L 527.818898 -102.331431 
L 502.37955 -100.831182 
L 474.214556 -106.169102 
L 446.049563 -95.721255 
L 418.793118 -104.436724 
L 390.628125 -98.279139 
L 363.37168 -91.402209 
L 335.206687 -88.462416 
L 307.041694 -91.941152 
L 279.785248 -89.24107 
L 251.620255 -91.238132 
L 224.36381 -95.083297 
L 196.198817 -88.814189 
L 169.85092 -93.609549 
L 141.685927 -92.723684 
L 113.520934 -86.155484 
L 86.264489 -84.605635 
z
" id="m5272418703" style="stroke:#348abd;stroke-opacity:0.2;stroke-width:0.5;"/>
    </defs>
    <g clip-path="url(#p81cead8839)">
     <use style="fill:#348abd;fill-opacity:0.2;stroke:#348abd;stroke-opacity:0.2;stroke-width:0.5;" x="0" xlink:href="#m5272418703" y="445.139531"/>
    </g>
   </g>
   <g id="PolyCollection_3">
    <defs>
     <path d="M 86.264489 -119.418813 
L 86.264489 -113.841581 
L 113.520934 -113.017777 
L 141.685927 -114.017362 
L 169.85092 -113.72239 
L 196.198817 -113.302465 
L 224.36381 -105.163274 
L 251.620255 -109.974494 
L 279.785248 -112.860283 
L 307.041694 -114.711093 
L 335.206687 -118.539866 
L 363.37168 -120.263737 
L 390.628125 -123.644737 
L 418.793118 -124.254141 
L 446.049563 -124.053378 
L 474.214556 -126.305465 
L 502.37955 -126.834643 
L 527.818898 -128.440752 
L 555.983892 -130.301213 
L 583.240337 -134.790272 
L 611.40533 -133.868073 
L 638.661775 -133.592342 
L 666.826768 -135.375715 
L 694.991761 -133.018331 
L 694.991761 -143.480794 
L 694.991761 -143.480794 
L 666.826768 -140.39771 
L 638.661775 -139.745299 
L 611.40533 -140.676077 
L 583.240337 -141.460133 
L 555.983892 -137.29348 
L 527.818898 -134.283265 
L 502.37955 -132.768082 
L 474.214556 -131.757114 
L 446.049563 -129.947357 
L 418.793118 -130.121247 
L 390.628125 -129.558125 
L 363.37168 -126.145367 
L 335.206687 -124.155775 
L 307.041694 -120.113588 
L 279.785248 -117.376298 
L 251.620255 -122.700419 
L 224.36381 -114.30896 
L 196.198817 -119.19847 
L 169.85092 -119.986515 
L 141.685927 -120.75387 
L 113.520934 -118.441248 
L 86.264489 -119.418813 
z
" id="m11bd0b0d8b" style="stroke:#988ed5;stroke-opacity:0.2;stroke-width:0.5;"/>
    </defs>
    <g clip-path="url(#p81cead8839)">
     <use style="fill:#988ed5;fill-opacity:0.2;stroke:#988ed5;stroke-opacity:0.2;stroke-width:0.5;" x="0" xlink:href="#m11bd0b0d8b" y="445.139531"/>
    </g>
   </g>
   <g id="PolyCollection_4">
    <defs>
     <path d="M 86.264489 -174.720027 
L 86.264489 -167.627161 
L 113.520934 -167.286573 
L 141.685927 -163.968209 
L 169.85092 -167.406329 
L 196.198817 -167.322982 
L 224.36381 -163.656148 
L 251.620255 -166.049652 
L 279.785248 -170.357501 
L 307.041694 -169.681795 
L 335.206687 -172.135269 
L 363.37168 -176.204928 
L 390.628125 -183.086788 
L 418.793118 -181.483444 
L 446.049563 -184.271397 
L 474.214556 -185.184961 
L 502.37955 -187.535881 
L 527.818898 -191.90427 
L 555.983892 -191.771556 
L 583.240337 -199.916876 
L 611.40533 -196.430999 
L 638.661775 -196.553146 
L 666.826768 -200.137068 
L 694.991761 -199.282298 
L 694.991761 -211.113088 
L 694.991761 -211.113088 
L 666.826768 -205.930042 
L 638.661775 -202.390688 
L 611.40533 -202.792989 
L 583.240337 -207.695133 
L 555.983892 -198.181775 
L 527.818898 -198.019404 
L 502.37955 -194.600279 
L 474.214556 -190.940961 
L 446.049563 -190.528746 
L 418.793118 -187.693511 
L 390.628125 -189.931991 
L 363.37168 -182.210294 
L 335.206687 -178.096928 
L 307.041694 -175.89357 
L 279.785248 -176.634245 
L 251.620255 -182.467159 
L 224.36381 -178.591281 
L 196.198817 -173.573893 
L 169.85092 -175.023748 
L 141.685927 -170.207638 
L 113.520934 -174.526274 
L 86.264489 -174.720027 
z
" id="mdbf778a161" style="stroke:#777777;stroke-opacity:0.2;stroke-width:0.5;"/>
    </defs>
    <g clip-path="url(#p81cead8839)">
     <use style="fill:#777777;fill-opacity:0.2;stroke:#777777;stroke-opacity:0.2;stroke-width:0.5;" x="0" xlink:href="#mdbf778a161" y="445.139531"/>
    </g>
   </g>
   <g id="PolyCollection_5">
    <defs>
     <path d="M 86.264489 -214.273542 
L 86.264489 -203.759095 
L 113.520934 -202.63217 
L 141.685927 -202.615835 
L 169.85092 -208.275167 
L 196.198817 -206.417869 
L 224.36381 -202.559938 
L 251.620255 -203.267781 
L 279.785248 -204.308058 
L 307.041694 -207.753218 
L 335.206687 -204.634316 
L 363.37168 -213.567277 
L 390.628125 -216.575662 
L 418.793118 -218.728991 
L 446.049563 -222.338949 
L 474.214556 -227.483461 
L 502.37955 -232.056483 
L 527.818898 -229.989507 
L 555.983892 -232.816895 
L 583.240337 -234.14469 
L 611.40533 -234.981162 
L 638.661775 -238.942089 
L 666.826768 -239.749557 
L 694.991761 -238.321733 
L 694.991761 -255.106888 
L 694.991761 -255.106888 
L 666.826768 -247.708224 
L 638.661775 -247.178556 
L 611.40533 -244.154575 
L 583.240337 -244.254277 
L 555.983892 -241.586082 
L 527.818898 -238.534139 
L 502.37955 -241.668362 
L 474.214556 -237.472255 
L 446.049563 -230.399514 
L 418.793118 -227.706342 
L 390.628125 -225.921305 
L 363.37168 -222.820064 
L 335.206687 -213.451088 
L 307.041694 -216.85698 
L 279.785248 -213.895436 
L 251.620255 -224.83311 
L 224.36381 -221.698309 
L 196.198817 -217.054225 
L 169.85092 -219.426818 
L 141.685927 -212.52584 
L 113.520934 -213.223761 
L 86.264489 -214.273542 
z
" id="m1546568071" style="stroke:#fbc15e;stroke-opacity:0.2;stroke-width:0.5;"/>
    </defs>
    <g clip-path="url(#p81cead8839)">
     <use style="fill:#fbc15e;fill-opacity:0.2;stroke:#fbc15e;stroke-opacity:0.2;stroke-width:0.5;" x="0" xlink:href="#m1546568071" y="445.139531"/>
    </g>
   </g>
   <g id="PolyCollection_6">
    <defs>
     <path d="M 86.264489 -258.254759 
L 86.264489 -241.957131 
L 113.520934 -242.713829 
L 141.685927 -243.681813 
L 169.85092 -241.257613 
L 196.198817 -243.511586 
L 224.36381 -230.306205 
L 251.620255 -225.538178 
L 279.785248 -237.962774 
L 307.041694 -238.675706 
L 335.206687 -247.716164 
L 363.37168 -250.405667 
L 390.628125 -256.409715 
L 418.793118 -255.599037 
L 446.049563 -261.734889 
L 474.214556 -264.180459 
L 502.37955 -265.980081 
L 527.818898 -271.904046 
L 555.983892 -274.40908 
L 583.240337 -269.047171 
L 611.40533 -275.137032 
L 638.661775 -273.800029 
L 666.826768 -279.381055 
L 694.991761 -282.397972 
L 694.991761 -308.400207 
L 694.991761 -308.400207 
L 666.826768 -290.683564 
L 638.661775 -286.468028 
L 611.40533 -289.541264 
L 583.240337 -283.053823 
L 555.983892 -289.193864 
L 527.818898 -287.723449 
L 502.37955 -280.976024 
L 474.214556 -276.023295 
L 446.049563 -273.406398 
L 418.793118 -268.23908 
L 390.628125 -268.821818 
L 363.37168 -263.222278 
L 335.206687 -259.924555 
L 307.041694 -252.599815 
L 279.785248 -250.069318 
L 251.620255 -257.051254 
L 224.36381 -260.207539 
L 196.198817 -258.238889 
L 169.85092 -257.830998 
L 141.685927 -260.657037 
L 113.520934 -260.190368 
L 86.264489 -258.254759 
z
" id="m2253b0be7a" style="stroke:#8eba42;stroke-opacity:0.2;stroke-width:0.5;"/>
    </defs>
    <g clip-path="url(#p81cead8839)">
     <use style="fill:#8eba42;fill-opacity:0.2;stroke:#8eba42;stroke-opacity:0.2;stroke-width:0.5;" x="0" xlink:href="#m2253b0be7a" y="445.139531"/>
    </g>
   </g>
   <g id="PolyCollection_7">
    <path clip-path="url(#p81cead8839)" d="M 363.37168 115.733804 
L 363.37168 176.029726 
L 390.628125 142.76301 
L 390.628125 63.75456 
L 390.628125 63.75456 
L 363.37168 115.733804 
z
" style="fill:#ffb5b8;fill-opacity:0.2;stroke:#ffb5b8;stroke-opacity:0.2;stroke-width:0.5;"/>
    <path clip-path="url(#p81cead8839)" d="M 502.37955 94.942106 
L 502.37955 165.633878 
L 527.818898 97.021276 
L 555.983892 205.138103 
L 555.983892 165.633878 
L 555.983892 165.633878 
L 527.818898 97.021276 
L 502.37955 94.942106 
z
" style="fill:#ffb5b8;fill-opacity:0.2;stroke:#ffb5b8;stroke-opacity:0.2;stroke-width:0.5;"/>
    <path clip-path="url(#p81cead8839)" d="M 611.40533 71.655405 
L 611.40533 192.663084 
L 611.40533 71.655405 
L 611.40533 71.655405 
z
" style="fill:#ffb5b8;fill-opacity:0.2;stroke:#ffb5b8;stroke-opacity:0.2;stroke-width:0.5;"/>
   </g>
   <g id="line2d_15">
    <path clip-path="url(#p81cead8839)" d="M 169.85092 389.352543 
L 196.198817 387.065456 
L 251.620255 386.025871 
L 279.785248 374.590437 
L 307.041694 377.085441 
L 418.793118 372.511268 
L 474.214556 378.956694 
L 502.37955 374.590437 
L 527.818898 373.966686 
L 555.983892 369.392513 
L 583.240337 375.630022 
L 611.40533 369.392513 
L 638.661775 363.155004 
" style="fill:none;stroke:#e24a33;stroke-linecap:round;stroke-width:1.5;"/>
   </g>
   <g id="line2d_16">
    <path clip-path="url(#p81cead8839)" d="M 86.264489 363.069903 
L 113.520934 361.955347 
L 141.685927 359.408829 
L 169.85092 356.868251 
L 196.198817 358.723054 
L 224.36381 357.853121 
L 251.620255 362.167398 
L 279.785248 358.946875 
L 307.041694 358.030856 
L 335.206687 361.386957 
L 363.37168 357.656147 
L 390.628125 352.337208 
L 418.793118 352.086305 
L 446.049563 353.396767 
L 474.214556 347.70349 
L 502.37955 348.924542 
L 527.818898 346.595902 
L 555.983892 348.773755 
L 583.240337 346.163581 
L 611.40533 347.732196 
L 638.661775 346.83167 
L 666.826768 342.006877 
L 694.991761 341.383126 
" style="fill:none;stroke:#348abd;stroke-linecap:round;stroke-width:1.5;"/>
   </g>
   <g id="line2d_17">
    <path clip-path="url(#p81cead8839)" d="M 86.264489 328.77837 
L 113.520934 329.437251 
L 141.685927 327.983717 
L 169.85092 328.39518 
L 196.198817 328.803328 
L 224.36381 335.420403 
L 251.620255 328.809566 
L 279.785248 330.182344 
L 307.041694 327.766508 
L 335.206687 323.778628 
L 363.37168 321.960538 
L 390.628125 318.654266 
L 418.793118 318.033453 
L 446.049563 318.293053 
L 474.214556 316.096049 
L 502.37955 315.415507 
L 527.818898 313.83218 
L 555.983892 311.457761 
L 583.240337 307.073318 
L 611.40533 308.021835 
L 638.661775 308.492998 
L 666.826768 307.153758 
L 694.991761 307.275694 
" style="fill:none;stroke:#988ed5;stroke-linecap:round;stroke-width:1.5;"/>
   </g>
   <g id="line2d_18">
    <path clip-path="url(#p81cead8839)" d="M 86.264489 273.841516 
L 113.520934 274.218972 
L 141.685927 278.069938 
L 169.85092 273.908152 
L 196.198817 274.681831 
L 224.36381 274.291212 
L 251.620255 271.264598 
L 279.785248 271.811858 
L 307.041694 272.465006 
L 335.206687 270.119962 
L 363.37168 265.859539 
L 390.628125 258.735809 
L 418.793118 260.622895 
L 446.049563 257.776661 
L 474.214556 257.100293 
L 502.37955 254.190446 
L 527.818898 250.082255 
L 555.983892 250.436058 
L 583.240337 241.51797 
L 611.40533 245.627936 
L 638.661775 245.871294 
L 666.826768 242.099553 
L 694.991761 240.017996 
" style="fill:none;stroke:#777777;stroke-linecap:round;stroke-width:1.5;"/>
   </g>
   <g id="line2d_19">
    <path clip-path="url(#p81cead8839)" d="M 86.264489 236.244514 
L 113.520934 237.154228 
L 141.685927 237.699526 
L 169.85092 231.302316 
L 196.198817 233.525696 
L 224.36381 232.733547 
L 251.620255 231.388398 
L 279.785248 236.235231 
L 307.041694 232.952202 
L 335.206687 236.11329 
L 363.37168 227.004564 
L 390.628125 223.801628 
L 418.793118 221.99086 
L 446.049563 218.789856 
L 474.214556 212.784106 
L 502.37955 208.296764 
L 527.818898 210.959742 
L 555.983892 208.125557 
L 583.240337 205.955079 
L 611.40533 205.528435 
L 638.661775 202.193007 
L 666.826768 201.351086 
L 694.991761 198.707082 
" style="fill:none;stroke:#fbc15e;stroke-linecap:round;stroke-width:1.5;"/>
   </g>
   <g id="line2d_20">
    <path clip-path="url(#p81cead8839)" d="M 86.264489 195.302584 
L 113.520934 193.96201 
L 141.685927 193.002151 
L 169.85092 195.52704 
L 196.198817 194.141266 
L 224.36381 201.412012 
L 251.620255 205.261777 
L 279.785248 201.256188 
L 307.041694 199.812505 
L 335.206687 191.24617 
L 363.37168 188.220754 
L 390.628125 182.74409 
L 418.793118 183.499873 
L 446.049563 177.62543 
L 474.214556 175.012559 
L 502.37955 172.006089 
L 527.818898 165.244569 
L 555.983892 163.263054 
L 583.240337 169.389533 
L 611.40533 162.929792 
L 638.661775 165.334509 
L 666.826768 160.194782 
L 694.991761 149.920881 
" style="fill:none;stroke:#8eba42;stroke-linecap:round;stroke-width:1.5;"/>
   </g>
   <g id="line2d_21">
    <path clip-path="url(#p81cead8839)" d="M 86.264489 43.42527 
L 307.041694 132.367162 
L 335.206687 153.158859 
L 363.37168 145.881765 
L 390.628125 112.268521 
L 418.793118 151.079689 
L 474.214556 97.021276 
L 502.37955 130.287992 
L 527.818898 97.021276 
L 555.983892 185.38599 
L 583.240337 113.654634 
L 611.40533 112.129909 
" style="fill:none;stroke:#ffb5b8;stroke-linecap:round;stroke-width:1.5;"/>
   </g>
   <g id="line2d_22"/>
   <g id="line2d_23"/>
   <g id="line2d_24"/>
   <g id="line2d_25"/>
   <g id="line2d_26"/>
   <g id="line2d_27"/>
   <g id="line2d_28"/>
   <g id="patch_3">
    <path d="M 55.828125 406.648906 
L 725.428125 406.648906 
" style="fill:none;stroke:#cccccc;stroke-linecap:square;stroke-linejoin:miter;"/>
   </g>
   <g id="patch_4">
    <path d="M 55.828125 26.128906 
L 725.428125 26.128906 
" style="fill:none;stroke:#cccccc;stroke-linecap:square;stroke-linejoin:miter;"/>
   </g>
   <g id="text_17">
    <!-- Mean Monthly HDB Resale Price for each Flat Type from Oct 2019 to Sept 2021 (last 2 years) -->
    <g style="fill:#262626;" transform="translate(79.388672 18.128906)scale(0.15 -0.15)">
     <defs>
      <path d="M 397 -1278 
L 334 -750 
Q 519 -800 656 -800 
Q 844 -800 956 -737 
Q 1069 -675 1141 -563 
Q 1194 -478 1313 -144 
Q 1328 -97 1363 -6 
L 103 3319 
L 709 3319 
L 1400 1397 
Q 1534 1031 1641 628 
Q 1738 1016 1872 1384 
L 2581 3319 
L 3144 3319 
L 1881 -56 
Q 1678 -603 1566 -809 
Q 1416 -1088 1222 -1217 
Q 1028 -1347 759 -1347 
Q 597 -1347 397 -1278 
z
" id="ArialMT-79" transform="scale(0.015625)"/>
      <path d="M 513 0 
L 513 4581 
L 1119 4581 
L 1119 2700 
L 3500 2700 
L 3500 4581 
L 4106 4581 
L 4106 0 
L 3500 0 
L 3500 2159 
L 1119 2159 
L 1119 0 
L 513 0 
z
" id="ArialMT-48" transform="scale(0.015625)"/>
      <path d="M 469 0 
L 469 4581 
L 2188 4581 
Q 2713 4581 3030 4442 
Q 3347 4303 3526 4014 
Q 3706 3725 3706 3409 
Q 3706 3116 3547 2856 
Q 3388 2597 3066 2438 
Q 3481 2316 3704 2022 
Q 3928 1728 3928 1328 
Q 3928 1006 3792 729 
Q 3656 453 3456 303 
Q 3256 153 2954 76 
Q 2653 0 2216 0 
L 469 0 
z
M 1075 2656 
L 2066 2656 
Q 2469 2656 2644 2709 
Q 2875 2778 2992 2937 
Q 3109 3097 3109 3338 
Q 3109 3566 3000 3739 
Q 2891 3913 2687 3977 
Q 2484 4041 1991 4041 
L 1075 4041 
L 1075 2656 
z
M 1075 541 
L 2216 541 
Q 2509 541 2628 563 
Q 2838 600 2978 687 
Q 3119 775 3209 942 
Q 3300 1109 3300 1328 
Q 3300 1584 3169 1773 
Q 3038 1963 2805 2039 
Q 2572 2116 2134 2116 
L 1075 2116 
L 1075 541 
z
" id="ArialMT-42" transform="scale(0.015625)"/>
      <path d="M 556 0 
L 556 2881 
L 59 2881 
L 59 3319 
L 556 3319 
L 556 3672 
Q 556 4006 616 4169 
Q 697 4388 901 4523 
Q 1106 4659 1475 4659 
Q 1713 4659 2000 4603 
L 1916 4113 
Q 1741 4144 1584 4144 
Q 1328 4144 1222 4034 
Q 1116 3925 1116 3625 
L 1116 3319 
L 1763 3319 
L 1763 2881 
L 1116 2881 
L 1116 0 
L 556 0 
z
" id="ArialMT-66" transform="scale(0.015625)"/>
      <path d="M 525 0 
L 525 4581 
L 3616 4581 
L 3616 4041 
L 1131 4041 
L 1131 2622 
L 3281 2622 
L 3281 2081 
L 1131 2081 
L 1131 0 
L 525 0 
z
" id="ArialMT-46" transform="scale(0.015625)"/>
      <path d="M 422 -1272 
L 422 3319 
L 934 3319 
L 934 2888 
Q 1116 3141 1344 3267 
Q 1572 3394 1897 3394 
Q 2322 3394 2647 3175 
Q 2972 2956 3137 2557 
Q 3303 2159 3303 1684 
Q 3303 1175 3120 767 
Q 2938 359 2589 142 
Q 2241 -75 1856 -75 
Q 1575 -75 1351 44 
Q 1128 163 984 344 
L 984 -1272 
L 422 -1272 
z
M 931 1641 
Q 931 1000 1190 694 
Q 1450 388 1819 388 
Q 2194 388 2461 705 
Q 2728 1022 2728 1688 
Q 2728 2322 2467 2637 
Q 2206 2953 1844 2953 
Q 1484 2953 1207 2617 
Q 931 2281 931 1641 
z
" id="ArialMT-70" transform="scale(0.015625)"/>
      <path d="M 422 0 
L 422 3319 
L 925 3319 
L 925 2853 
Q 1081 3097 1340 3245 
Q 1600 3394 1931 3394 
Q 2300 3394 2536 3241 
Q 2772 3088 2869 2813 
Q 3263 3394 3894 3394 
Q 4388 3394 4653 3120 
Q 4919 2847 4919 2278 
L 4919 0 
L 4359 0 
L 4359 2091 
Q 4359 2428 4304 2576 
Q 4250 2725 4106 2815 
Q 3963 2906 3769 2906 
Q 3419 2906 3187 2673 
Q 2956 2441 2956 1928 
L 2956 0 
L 2394 0 
L 2394 2156 
Q 2394 2531 2256 2718 
Q 2119 2906 1806 2906 
Q 1569 2906 1367 2781 
Q 1166 2656 1075 2415 
Q 984 2175 984 1722 
L 984 0 
L 422 0 
z
" id="ArialMT-6d" transform="scale(0.015625)"/>
      <path d="M 309 2231 
Q 309 3372 921 4017 
Q 1534 4663 2503 4663 
Q 3138 4663 3647 4359 
Q 4156 4056 4423 3514 
Q 4691 2972 4691 2284 
Q 4691 1588 4409 1038 
Q 4128 488 3612 205 
Q 3097 -78 2500 -78 
Q 1853 -78 1343 234 
Q 834 547 571 1087 
Q 309 1628 309 2231 
z
M 934 2222 
Q 934 1394 1379 917 
Q 1825 441 2497 441 
Q 3181 441 3623 922 
Q 4066 1403 4066 2288 
Q 4066 2847 3877 3264 
Q 3688 3681 3323 3911 
Q 2959 4141 2506 4141 
Q 1863 4141 1398 3698 
Q 934 3256 934 2222 
z
" id="ArialMT-4f" transform="scale(0.015625)"/>
     </defs>
     <use xlink:href="#ArialMT-4d"/>
     <use x="83.300781" xlink:href="#ArialMT-65"/>
     <use x="138.916016" xlink:href="#ArialMT-61"/>
     <use x="194.53125" xlink:href="#ArialMT-6e"/>
     <use x="250.146484" xlink:href="#ArialMT-20"/>
     <use x="277.929688" xlink:href="#ArialMT-4d"/>
     <use x="361.230469" xlink:href="#ArialMT-6f"/>
     <use x="416.845703" xlink:href="#ArialMT-6e"/>
     <use x="472.460938" xlink:href="#ArialMT-74"/>
     <use x="500.244141" xlink:href="#ArialMT-68"/>
     <use x="555.859375" xlink:href="#ArialMT-6c"/>
     <use x="578.076172" xlink:href="#ArialMT-79"/>
     <use x="628.076172" xlink:href="#ArialMT-20"/>
     <use x="655.859375" xlink:href="#ArialMT-48"/>
     <use x="728.076172" xlink:href="#ArialMT-44"/>
     <use x="800.292969" xlink:href="#ArialMT-42"/>
     <use x="866.992188" xlink:href="#ArialMT-20"/>
     <use x="894.775391" xlink:href="#ArialMT-52"/>
     <use x="966.992188" xlink:href="#ArialMT-65"/>
     <use x="1022.607422" xlink:href="#ArialMT-73"/>
     <use x="1072.607422" xlink:href="#ArialMT-61"/>
     <use x="1128.222656" xlink:href="#ArialMT-6c"/>
     <use x="1150.439453" xlink:href="#ArialMT-65"/>
     <use x="1206.054688" xlink:href="#ArialMT-20"/>
     <use x="1233.837891" xlink:href="#ArialMT-50"/>
     <use x="1300.537109" xlink:href="#ArialMT-72"/>
     <use x="1333.837891" xlink:href="#ArialMT-69"/>
     <use x="1356.054688" xlink:href="#ArialMT-63"/>
     <use x="1406.054688" xlink:href="#ArialMT-65"/>
     <use x="1461.669922" xlink:href="#ArialMT-20"/>
     <use x="1489.453125" xlink:href="#ArialMT-66"/>
     <use x="1517.236328" xlink:href="#ArialMT-6f"/>
     <use x="1572.851562" xlink:href="#ArialMT-72"/>
     <use x="1606.152344" xlink:href="#ArialMT-20"/>
     <use x="1633.935547" xlink:href="#ArialMT-65"/>
     <use x="1689.550781" xlink:href="#ArialMT-61"/>
     <use x="1745.166016" xlink:href="#ArialMT-63"/>
     <use x="1795.166016" xlink:href="#ArialMT-68"/>
     <use x="1850.78125" xlink:href="#ArialMT-20"/>
     <use x="1878.564453" xlink:href="#ArialMT-46"/>
     <use x="1939.648438" xlink:href="#ArialMT-6c"/>
     <use x="1961.865234" xlink:href="#ArialMT-61"/>
     <use x="2017.480469" xlink:href="#ArialMT-74"/>
     <use x="2045.263672" xlink:href="#ArialMT-20"/>
     <use x="2071.296875" xlink:href="#ArialMT-54"/>
     <use x="2126.880859" xlink:href="#ArialMT-79"/>
     <use x="2176.880859" xlink:href="#ArialMT-70"/>
     <use x="2232.496094" xlink:href="#ArialMT-65"/>
     <use x="2288.111328" xlink:href="#ArialMT-20"/>
     <use x="2315.894531" xlink:href="#ArialMT-66"/>
     <use x="2343.677734" xlink:href="#ArialMT-72"/>
     <use x="2376.978516" xlink:href="#ArialMT-6f"/>
     <use x="2432.59375" xlink:href="#ArialMT-6d"/>
     <use x="2515.894531" xlink:href="#ArialMT-20"/>
     <use x="2543.677734" xlink:href="#ArialMT-4f"/>
     <use x="2621.460938" xlink:href="#ArialMT-63"/>
     <use x="2671.460938" xlink:href="#ArialMT-74"/>
     <use x="2699.244141" xlink:href="#ArialMT-20"/>
     <use x="2727.027344" xlink:href="#ArialMT-32"/>
     <use x="2782.642578" xlink:href="#ArialMT-30"/>
     <use x="2838.257812" xlink:href="#ArialMT-31"/>
     <use x="2893.873047" xlink:href="#ArialMT-39"/>
     <use x="2949.488281" xlink:href="#ArialMT-20"/>
     <use x="2977.271484" xlink:href="#ArialMT-74"/>
     <use x="3005.054688" xlink:href="#ArialMT-6f"/>
     <use x="3060.669922" xlink:href="#ArialMT-20"/>
     <use x="3088.453125" xlink:href="#ArialMT-53"/>
     <use x="3155.152344" xlink:href="#ArialMT-65"/>
     <use x="3210.767578" xlink:href="#ArialMT-70"/>
     <use x="3266.382812" xlink:href="#ArialMT-74"/>
     <use x="3294.166016" xlink:href="#ArialMT-20"/>
     <use x="3321.949219" xlink:href="#ArialMT-32"/>
     <use x="3377.564453" xlink:href="#ArialMT-30"/>
     <use x="3433.179688" xlink:href="#ArialMT-32"/>
     <use x="3488.794922" xlink:href="#ArialMT-31"/>
     <use x="3544.410156" xlink:href="#ArialMT-20"/>
     <use x="3572.193359" xlink:href="#ArialMT-28"/>
     <use x="3605.494141" xlink:href="#ArialMT-6c"/>
     <use x="3627.710938" xlink:href="#ArialMT-61"/>
     <use x="3683.326172" xlink:href="#ArialMT-73"/>
     <use x="3733.326172" xlink:href="#ArialMT-74"/>
     <use x="3761.109375" xlink:href="#ArialMT-20"/>
     <use x="3788.892578" xlink:href="#ArialMT-32"/>
     <use x="3844.507812" xlink:href="#ArialMT-20"/>
     <use x="3872.291016" xlink:href="#ArialMT-79"/>
     <use x="3922.291016" xlink:href="#ArialMT-65"/>
     <use x="3977.90625" xlink:href="#ArialMT-61"/>
     <use x="4033.521484" xlink:href="#ArialMT-72"/>
     <use x="4066.822266" xlink:href="#ArialMT-73"/>
     <use x="4116.822266" xlink:href="#ArialMT-29"/>
    </g>
   </g>
   <g id="legend_1">
    <g id="patch_5">
     <path d="M 588.45625 147.530469 
L 718.428125 147.530469 
Q 720.428125 147.530469 720.428125 145.530469 
L 720.428125 33.128906 
Q 720.428125 31.128906 718.428125 31.128906 
L 588.45625 31.128906 
Q 586.45625 31.128906 586.45625 33.128906 
L 586.45625 145.530469 
Q 586.45625 147.530469 588.45625 147.530469 
z
" style="fill:#ffffff;opacity:0.8;stroke:#cccccc;stroke-linejoin:miter;stroke-width:0.5;"/>
    </g>
    <g id="text_18">
     <!-- flat_type -->
     <g style="fill:#262626;" transform="translate(634.542187 42.408594)scale(0.1 -0.1)">
      <defs>
       <path d="M -97 -1272 
L -97 -866 
L 3631 -866 
L 3631 -1272 
L -97 -1272 
z
" id="ArialMT-5f" transform="scale(0.015625)"/>
      </defs>
      <use xlink:href="#ArialMT-66"/>
      <use x="27.783203" xlink:href="#ArialMT-6c"/>
      <use x="50" xlink:href="#ArialMT-61"/>
      <use x="105.615234" xlink:href="#ArialMT-74"/>
      <use x="133.398438" xlink:href="#ArialMT-5f"/>
      <use x="189.013672" xlink:href="#ArialMT-74"/>
      <use x="216.796875" xlink:href="#ArialMT-79"/>
      <use x="266.796875" xlink:href="#ArialMT-70"/>
      <use x="322.412109" xlink:href="#ArialMT-65"/>
     </g>
    </g>
    <g id="line2d_29">
     <path d="M 590.45625 53.171094 
L 610.45625 53.171094 
" style="fill:none;stroke:#e24a33;stroke-linecap:round;stroke-width:1.5;"/>
    </g>
    <g id="line2d_30"/>
    <g id="text_19">
     <!-- 1 ROOM -->
     <g style="fill:#262626;" transform="translate(618.45625 56.671094)scale(0.1 -0.1)">
      <use xlink:href="#ArialMT-31"/>
      <use x="55.615234" xlink:href="#ArialMT-20"/>
      <use x="83.398438" xlink:href="#ArialMT-52"/>
      <use x="155.615234" xlink:href="#ArialMT-4f"/>
      <use x="233.398438" xlink:href="#ArialMT-4f"/>
      <use x="311.181641" xlink:href="#ArialMT-4d"/>
     </g>
    </g>
    <g id="line2d_31">
     <path d="M 590.45625 67.316406 
L 610.45625 67.316406 
" style="fill:none;stroke:#348abd;stroke-linecap:round;stroke-width:1.5;"/>
    </g>
    <g id="line2d_32"/>
    <g id="text_20">
     <!-- 2 ROOM -->
     <g style="fill:#262626;" transform="translate(618.45625 70.816406)scale(0.1 -0.1)">
      <use xlink:href="#ArialMT-32"/>
      <use x="55.615234" xlink:href="#ArialMT-20"/>
      <use x="83.398438" xlink:href="#ArialMT-52"/>
      <use x="155.615234" xlink:href="#ArialMT-4f"/>
      <use x="233.398438" xlink:href="#ArialMT-4f"/>
      <use x="311.181641" xlink:href="#ArialMT-4d"/>
     </g>
    </g>
    <g id="line2d_33">
     <path d="M 590.45625 81.461719 
L 610.45625 81.461719 
" style="fill:none;stroke:#988ed5;stroke-linecap:round;stroke-width:1.5;"/>
    </g>
    <g id="line2d_34"/>
    <g id="text_21">
     <!-- 3 ROOM -->
     <g style="fill:#262626;" transform="translate(618.45625 84.961719)scale(0.1 -0.1)">
      <defs>
       <path d="M 269 1209 
L 831 1284 
Q 928 806 1161 595 
Q 1394 384 1728 384 
Q 2125 384 2398 659 
Q 2672 934 2672 1341 
Q 2672 1728 2419 1979 
Q 2166 2231 1775 2231 
Q 1616 2231 1378 2169 
L 1441 2663 
Q 1497 2656 1531 2656 
Q 1891 2656 2178 2843 
Q 2466 3031 2466 3422 
Q 2466 3731 2256 3934 
Q 2047 4138 1716 4138 
Q 1388 4138 1169 3931 
Q 950 3725 888 3313 
L 325 3413 
Q 428 3978 793 4289 
Q 1159 4600 1703 4600 
Q 2078 4600 2393 4439 
Q 2709 4278 2876 4000 
Q 3044 3722 3044 3409 
Q 3044 3113 2884 2869 
Q 2725 2625 2413 2481 
Q 2819 2388 3044 2092 
Q 3269 1797 3269 1353 
Q 3269 753 2831 336 
Q 2394 -81 1725 -81 
Q 1122 -81 723 278 
Q 325 638 269 1209 
z
" id="ArialMT-33" transform="scale(0.015625)"/>
      </defs>
      <use xlink:href="#ArialMT-33"/>
      <use x="55.615234" xlink:href="#ArialMT-20"/>
      <use x="83.398438" xlink:href="#ArialMT-52"/>
      <use x="155.615234" xlink:href="#ArialMT-4f"/>
      <use x="233.398438" xlink:href="#ArialMT-4f"/>
      <use x="311.181641" xlink:href="#ArialMT-4d"/>
     </g>
    </g>
    <g id="line2d_35">
     <path d="M 590.45625 95.607031 
L 610.45625 95.607031 
" style="fill:none;stroke:#777777;stroke-linecap:round;stroke-width:1.5;"/>
    </g>
    <g id="line2d_36"/>
    <g id="text_22">
     <!-- 4 ROOM -->
     <g style="fill:#262626;" transform="translate(618.45625 99.107031)scale(0.1 -0.1)">
      <use xlink:href="#ArialMT-34"/>
      <use x="55.615234" xlink:href="#ArialMT-20"/>
      <use x="83.398438" xlink:href="#ArialMT-52"/>
      <use x="155.615234" xlink:href="#ArialMT-4f"/>
      <use x="233.398438" xlink:href="#ArialMT-4f"/>
      <use x="311.181641" xlink:href="#ArialMT-4d"/>
     </g>
    </g>
    <g id="line2d_37">
     <path d="M 590.45625 109.752344 
L 610.45625 109.752344 
" style="fill:none;stroke:#fbc15e;stroke-linecap:round;stroke-width:1.5;"/>
    </g>
    <g id="line2d_38"/>
    <g id="text_23">
     <!-- 5 ROOM -->
     <g style="fill:#262626;" transform="translate(618.45625 113.252344)scale(0.1 -0.1)">
      <defs>
       <path d="M 266 1200 
L 856 1250 
Q 922 819 1161 601 
Q 1400 384 1738 384 
Q 2144 384 2425 690 
Q 2706 997 2706 1503 
Q 2706 1984 2436 2262 
Q 2166 2541 1728 2541 
Q 1456 2541 1237 2417 
Q 1019 2294 894 2097 
L 366 2166 
L 809 4519 
L 3088 4519 
L 3088 3981 
L 1259 3981 
L 1013 2750 
Q 1425 3038 1878 3038 
Q 2478 3038 2890 2622 
Q 3303 2206 3303 1553 
Q 3303 931 2941 478 
Q 2500 -78 1738 -78 
Q 1113 -78 717 272 
Q 322 622 266 1200 
z
" id="ArialMT-35" transform="scale(0.015625)"/>
      </defs>
      <use xlink:href="#ArialMT-35"/>
      <use x="55.615234" xlink:href="#ArialMT-20"/>
      <use x="83.398438" xlink:href="#ArialMT-52"/>
      <use x="155.615234" xlink:href="#ArialMT-4f"/>
      <use x="233.398438" xlink:href="#ArialMT-4f"/>
      <use x="311.181641" xlink:href="#ArialMT-4d"/>
     </g>
    </g>
    <g id="line2d_39">
     <path d="M 590.45625 123.897656 
L 610.45625 123.897656 
" style="fill:none;stroke:#8eba42;stroke-linecap:round;stroke-width:1.5;"/>
    </g>
    <g id="line2d_40"/>
    <g id="text_24">
     <!-- EXECUTIVE -->
     <g style="fill:#262626;" transform="translate(618.45625 127.397656)scale(0.1 -0.1)">
      <defs>
       <path d="M 506 0 
L 506 4581 
L 3819 4581 
L 3819 4041 
L 1113 4041 
L 1113 2638 
L 3647 2638 
L 3647 2100 
L 1113 2100 
L 1113 541 
L 3925 541 
L 3925 0 
L 506 0 
z
" id="ArialMT-45" transform="scale(0.015625)"/>
       <path d="M 28 0 
L 1800 2388 
L 238 4581 
L 959 4581 
L 1791 3406 
Q 2050 3041 2159 2844 
Q 2313 3094 2522 3366 
L 3444 4581 
L 4103 4581 
L 2494 2422 
L 4228 0 
L 3478 0 
L 2325 1634 
Q 2228 1775 2125 1941 
Q 1972 1691 1906 1597 
L 756 0 
L 28 0 
z
" id="ArialMT-58" transform="scale(0.015625)"/>
       <path d="M 3763 1606 
L 4369 1453 
Q 4178 706 3683 314 
Q 3188 -78 2472 -78 
Q 1731 -78 1267 223 
Q 803 525 561 1097 
Q 319 1669 319 2325 
Q 319 3041 592 3573 
Q 866 4106 1370 4382 
Q 1875 4659 2481 4659 
Q 3169 4659 3637 4309 
Q 4106 3959 4291 3325 
L 3694 3184 
Q 3534 3684 3231 3912 
Q 2928 4141 2469 4141 
Q 1941 4141 1586 3887 
Q 1231 3634 1087 3207 
Q 944 2781 944 2328 
Q 944 1744 1114 1308 
Q 1284 872 1643 656 
Q 2003 441 2422 441 
Q 2931 441 3284 734 
Q 3638 1028 3763 1606 
z
" id="ArialMT-43" transform="scale(0.015625)"/>
       <path d="M 3500 4581 
L 4106 4581 
L 4106 1934 
Q 4106 1244 3950 837 
Q 3794 431 3386 176 
Q 2978 -78 2316 -78 
Q 1672 -78 1262 144 
Q 853 366 678 786 
Q 503 1206 503 1934 
L 503 4581 
L 1109 4581 
L 1109 1938 
Q 1109 1341 1220 1058 
Q 1331 775 1601 622 
Q 1872 469 2263 469 
Q 2931 469 3215 772 
Q 3500 1075 3500 1938 
L 3500 4581 
z
" id="ArialMT-55" transform="scale(0.015625)"/>
       <path d="M 597 0 
L 597 4581 
L 1203 4581 
L 1203 0 
L 597 0 
z
" id="ArialMT-49" transform="scale(0.015625)"/>
       <path d="M 1803 0 
L 28 4581 
L 684 4581 
L 1875 1253 
Q 2019 853 2116 503 
Q 2222 878 2363 1253 
L 3600 4581 
L 4219 4581 
L 2425 0 
L 1803 0 
z
" id="ArialMT-56" transform="scale(0.015625)"/>
      </defs>
      <use xlink:href="#ArialMT-45"/>
      <use x="66.699219" xlink:href="#ArialMT-58"/>
      <use x="133.398438" xlink:href="#ArialMT-45"/>
      <use x="200.097656" xlink:href="#ArialMT-43"/>
      <use x="272.314453" xlink:href="#ArialMT-55"/>
      <use x="344.53125" xlink:href="#ArialMT-54"/>
      <use x="405.615234" xlink:href="#ArialMT-49"/>
      <use x="433.398438" xlink:href="#ArialMT-56"/>
      <use x="500.097656" xlink:href="#ArialMT-45"/>
     </g>
    </g>
    <g id="line2d_41">
     <path d="M 590.45625 138.042969 
L 610.45625 138.042969 
" style="fill:none;stroke:#ffb5b8;stroke-linecap:round;stroke-width:1.5;"/>
    </g>
    <g id="line2d_42"/>
    <g id="text_25">
     <!-- MULTI-GENERATION -->
     <g style="fill:#262626;" transform="translate(618.45625 141.542969)scale(0.1 -0.1)">
      <defs>
       <path d="M 469 0 
L 469 4581 
L 1075 4581 
L 1075 541 
L 3331 541 
L 3331 0 
L 469 0 
z
" id="ArialMT-4c" transform="scale(0.015625)"/>
       <path d="M 488 0 
L 488 4581 
L 1109 4581 
L 3516 984 
L 3516 4581 
L 4097 4581 
L 4097 0 
L 3475 0 
L 1069 3600 
L 1069 0 
L 488 0 
z
" id="ArialMT-4e" transform="scale(0.015625)"/>
       <path d="M -9 0 
L 1750 4581 
L 2403 4581 
L 4278 0 
L 3588 0 
L 3053 1388 
L 1138 1388 
L 634 0 
L -9 0 
z
M 1313 1881 
L 2866 1881 
L 2388 3150 
Q 2169 3728 2063 4100 
Q 1975 3659 1816 3225 
L 1313 1881 
z
" id="ArialMT-41" transform="scale(0.015625)"/>
      </defs>
      <use xlink:href="#ArialMT-4d"/>
      <use x="83.300781" xlink:href="#ArialMT-55"/>
      <use x="155.517578" xlink:href="#ArialMT-4c"/>
      <use x="203.757812" xlink:href="#ArialMT-54"/>
      <use x="264.841797" xlink:href="#ArialMT-49"/>
      <use x="292.625" xlink:href="#ArialMT-2d"/>
      <use x="325.925781" xlink:href="#ArialMT-47"/>
      <use x="403.708984" xlink:href="#ArialMT-45"/>
      <use x="470.408203" xlink:href="#ArialMT-4e"/>
      <use x="542.625" xlink:href="#ArialMT-45"/>
      <use x="609.324219" xlink:href="#ArialMT-52"/>
      <use x="681.541016" xlink:href="#ArialMT-41"/>
      <use x="740.865234" xlink:href="#ArialMT-54"/>
      <use x="801.949219" xlink:href="#ArialMT-49"/>
      <use x="829.732422" xlink:href="#ArialMT-4f"/>
      <use x="907.515625" xlink:href="#ArialMT-4e"/>
     </g>
    </g>
   </g>
  </g>
 </g>
 <defs>
  <clipPath id="p81cead8839">
   <rect height="380.52" width="669.6" x="55.828125" y="26.128906"/>
  </clipPath>
 </defs>
</svg>
